<svg xmlns="http://www.w3.org/2000/svg" viewBox="0 0 135.4 247" width="135.4" height="247">
	<style type="text/css">
		.st0{opacity:0.1;enable-background:new;}
		.st1{fill:#08B8C1;}
		.st2{enable-background:new;}
		.st3{fill:none;stroke:#08B8C1;stroke-miterlimit:10;}
	</style>
	<g>
		<g class="st0">
			<path class="st1" d="M11.7,171.1v-22L63,101.7c4.4-4.2,8-8,11-11.4c3-3.4,5.2-6.7,6.8-10s2.3-6.8,2.3-10.6c0-4.2-1-7.9-2.9-10.9 s-4.6-5.4-7.9-7.1C69,50,65.2,49.2,61,49.2c-4.4,0-8.3,0.9-11.5,2.7c-3.3,1.8-5.8,4.3-7.6,7.7c-1.8,3.3-2.7,7.3-2.7,11.9H10.3 c0-9.4,2.1-17.6,6.4-24.6c4.3-6.9,10.3-12.3,17.9-16.1c7.7-3.8,16.6-5.7,26.6-5.7c10.3,0,19.3,1.8,27,5.5 c7.7,3.6,13.6,8.7,17.9,15.1c4.3,6.4,6.4,13.8,6.4,22.1c0,5.4-1.1,10.8-3.2,16.1c-2.1,5.3-5.9,11.2-11.4,17.6 c-5.4,6.5-13.1,14.2-23,23.2l-21,20.6v1h60.5v24.9H11.7z"/>
		</g>
		<g class="st2">
			<path class="st3" d="M21.7,183.1v-22L73,113.7c4.4-4.2,8-8,11-11.4c3-3.4,5.2-6.7,6.8-10s2.3-6.8,2.3-10.6c0-4.2-1-7.9-2.9-10.9 s-4.6-5.4-7.9-7.1C79,62,75.2,61.2,71,61.2c-4.4,0-8.3,0.9-11.5,2.7c-3.3,1.8-5.8,4.3-7.6,7.7c-1.8,3.3-2.7,7.3-2.7,11.9H20.3 c0-9.4,2.1-17.6,6.4-24.6c4.3-6.9,10.3-12.3,17.9-16.1c7.7-3.8,16.6-5.7,26.6-5.7c10.3,0,19.3,1.8,27,5.5 c7.7,3.6,13.6,8.7,17.9,15.1c4.3,6.4,6.4,13.8,6.4,22.1c0,5.4-1.1,10.8-3.2,16.1c-2.1,5.3-5.9,11.2-11.4,17.6 c-5.4,6.5-13.1,14.2-23,23.2l-21,20.6v1h60.5v24.9H21.7z"/>
		</g>
	</g>
</svg>