<svg xmlns="http://www.w3.org/2000/svg" viewBox="0 0 149.6 247" width="149.6" height="247">
	<style type="text/css">
		.st0{opacity:0.1;enable-background:new;}
		.st1{fill:#08B8C1;}
		.st2{enable-background:new;}
		.st3{fill:none;stroke:#08B8C1;stroke-miterlimit:10;}
	</style>
	<g>
		<g class="st0">
			<path class="st1" d="M65,173.1c-10.5,0-19.9-1.8-28-5.5c-8.2-3.6-14.6-8.7-19.4-15.1c-4.7-6.4-7.1-13.8-7.3-22.2H41 c0.2,3.5,1.3,6.6,3.5,9.3c2.1,2.7,5,4.7,8.6,6.2s7.6,2.2,12,2.2c4.6,0,8.7-0.8,12.3-2.5c3.6-1.6,6.4-3.9,8.4-6.8 c2-2.9,3-6.3,3-10.1s-1.1-7.3-3.2-10.2c-2.1-3-5.2-5.3-9.1-7c-4-1.7-8.7-2.5-14.1-2.5H48.8V86.5h13.4c4.6,0,8.7-0.8,12.2-2.4 s6.3-3.8,8.3-6.7c2-2.8,3-6.2,3-10c0-3.6-0.9-6.8-2.6-9.5S79,53,75.9,51.5s-6.7-2.3-10.7-2.3c-4.1,0-7.9,0.7-11.3,2.2 c-3.4,1.5-6.2,3.6-8.2,6.3c-2.1,2.7-3.2,5.9-3.3,9.6H13.2c0.1-8.3,2.5-15.6,7.1-22C24.9,39,31.1,34,38.9,30.4S55.5,25,65.4,25 s18.6,1.8,26.1,5.4s13.3,8.5,17.4,14.6c4.2,6.1,6.2,13,6.2,20.6c0,8.1-2.5,14.8-7.5,20.2S96,94.6,87.9,96.1v1.1 c10.6,1.4,18.7,5,24.2,11c5.6,6,8.3,13.5,8.3,22.4c0,8.2-2.3,15.5-7.1,21.9c-4.8,6.4-11.3,11.4-19.7,15.1 C85.3,171.3,75.7,173.1,65,173.1z"/>
		</g>
		<g class="st2">
			<path class="st3" d="M83.4,185.1c-10.5,0-19.9-1.8-28-5.5c-8.3-3.6-14.7-8.6-19.4-15s-7.1-13.8-7.3-22.2h30.7 c0.2,3.5,1.3,6.6,3.5,9.3c2.1,2.7,5,4.7,8.6,6.2s7.6,2.2,12,2.2c4.6,0,8.8-0.8,12.3-2.5c3.6-1.6,6.4-3.9,8.4-6.8s3-6.3,3-10.1 s-1.1-7.3-3.2-10.2c-2.1-3-5.2-5.3-9.1-7c-4-1.7-8.7-2.5-14.1-2.5H67.2V98.5h13.4c4.6,0,8.7-0.8,12.2-2.4s6.3-3.8,8.3-6.7 c2-2.8,3-6.2,3-10c0-3.6-0.9-6.8-2.6-9.5s-4.1-4.9-7.2-6.4s-6.7-2.3-10.7-2.3c-4.1,0-7.9,0.7-11.3,2.2s-6.2,3.6-8.2,6.3 c-2.1,2.7-3.2,5.9-3.3,9.6H31.6c0.1-8.3,2.5-15.6,7.1-22C43.3,51,49.5,46,57.3,42.4S73.9,37,83.8,37s18.6,1.8,26.1,5.4 c7.5,3.6,13.3,8.5,17.4,14.6c4.2,6.1,6.2,13,6.2,20.6c0,8.1-2.5,14.8-7.5,20.2s-11.6,8.8-19.7,10.3v1.1c10.6,1.4,18.7,5,24.2,11 c5.6,6,8.3,13.5,8.3,22.4c0,8.2-2.3,15.5-7.1,21.9s-11.3,11.4-19.7,15.1C103.7,183.3,94.1,185.1,83.4,185.1z"/>
		</g>
	</g>
</svg>