<svg xmlns="http://www.w3.org/2000/svg" viewBox="0 0 546 245" width="546" height="245">
	<style>
		.s0 { fill: #08b8c1 }
		.s1 { fill: none;stroke: #08b8c1 }
	</style>
	<g id="Layer">
		<g style="opacity:.1">
			<path class="s0" d="m427.5 126.1v-25.2h99.7v25.2zm37.3 37.2v-99.6h25.2v99.7h-25.2z"/>
		</g>
		<g style="opacity:.1">
			<path class="s0" d="m79.7 173.1c-10.5 0-19.9-1.8-28-5.5-8.2-3.6-14.6-8.7-19.4-15.1-4.7-6.4-7.1-13.8-7.3-22.2h30.7c0.2 3.5 1.3 6.6 3.5 9.3 2.1 2.7 5 4.7 8.6 6.2 3.6 1.5 7.6 2.2 12 2.2 4.6 0 8.7-0.8 12.3-2.5 3.6-1.6 6.4-3.9 8.4-6.8 2-2.9 3-6.3 3-10.1 0-3.8-1.1-7.3-3.2-10.2-2.1-3-5.2-5.3-9.1-7-4-1.7-8.7-2.5-14.1-2.5h-13.4v-22.4h13.4c4.6 0 8.7-0.8 12.2-2.4 3.5-1.6 6.3-3.8 8.3-6.7 2-2.8 3-6.2 3-10 0-3.6-0.9-6.8-2.6-9.5-1.7-2.7-4.1-4.9-7.2-6.4-3.1-1.5-6.7-2.3-10.7-2.3-4.1 0-7.9 0.7-11.3 2.2-3.4 1.5-6.2 3.6-8.2 6.3q-3.1 4.1-3.3 9.6h-29.3c0.1-8.3 2.5-15.6 7.1-22 4.6-6.3 10.8-11.3 18.6-14.9 7.8-3.6 16.6-5.4 26.5-5.4q14.8 0 26.1 5.4c7.5 3.6 13.3 8.5 17.4 14.6 4.2 6.1 6.2 13 6.2 20.6 0 8.1-2.5 14.8-7.5 20.2-5 5.4-11.6 8.8-19.7 10.3v1.1c10.6 1.4 18.7 5 24.2 11 5.6 6 8.3 13.5 8.3 22.4 0 8.2-2.3 15.5-7.1 21.9-4.8 6.4-11.3 11.4-19.7 15.1-8.3 3.7-17.9 5.5-28.7 5.5z"/>
			<path class="s0" d="m213.7 174.3c-12.1 0-22.5-3-31.2-8.9-8.7-5.9-15.4-14.5-20.1-25.7q-7.1-16.8-6.9-40.5c0-15.7 2.3-29.1 7-40.2 4.7-11.1 11.4-19.5 20.1-25.3 8.7-5.8 19.1-8.7 31.1-8.7 12.1 0 22.4 2.9 31.1 8.7 8.7 5.8 15.4 14.3 20.1 25.3 4.7 11 7 24.4 7 40.1 0 15.8-2.3 29.3-7 40.5-4.7 11.2-11.3 19.8-20 25.7-8.7 6.1-19.1 9-31.2 9zm0-25.2c8.3 0 14.8-4.2 19.8-12.5 4.9-8.3 7.4-20.8 7.3-37.4q0-16.4-3.3-27.3c-2.2-7.3-5.4-12.7-9.4-16.4-4.1-3.7-8.8-5.5-14.3-5.5-8.2 0-14.8 4.1-19.7 12.3q-7.3 12.3-7.5 36.9c0 11.1 1.1 20.3 3.3 27.7 2.2 7.4 5.4 12.9 9.5 16.6 4 3.7 8.8 5.6 14.3 5.6z"/>
			<path class="s0" d="m350.1 174.3c-12.1 0-22.5-3-31.2-8.9-8.7-5.9-15.4-14.5-20.1-25.7q-7.1-16.8-6.9-40.5c0-15.7 2.3-29.1 7-40.2 4.7-11.1 11.4-19.5 20.1-25.3 8.7-5.8 19.1-8.7 31.1-8.7 12 0 22.4 2.9 31.1 8.7 8.7 5.8 15.4 14.3 20.1 25.3 4.7 11 7 24.4 7 40.1 0 15.8-2.3 29.3-7 40.5-4.7 11.2-11.3 19.8-20 25.7-8.7 6.1-19.1 9-31.2 9zm0-25.2c8.3 0 14.8-4.2 19.8-12.5 4.9-8.3 7.4-20.8 7.3-37.4q0-16.4-3.3-27.3c-2.2-7.3-5.4-12.7-9.4-16.4-4.1-3.7-8.8-5.5-14.3-5.5-8.2 0-14.8 4.1-19.7 12.3q-7.3 12.3-7.5 36.9c0 11.1 1.1 20.3 3.3 27.7 2.2 7.4 5.4 12.9 9.5 16.6 4 3.7 8.8 5.6 14.3 5.6z"/>
		</g>
		<g>
			<path class="s1" d="m435.2 136.1v-25.2h37.3v25.2zm99.7-25.2v25.2h-37.2v-25.2zm-62.4 62.5h25.2v-37.3h-25.2zm25.2-99.7h-25.2v37.2h25.2z"/>
		</g>
		<g>
			<path class="s1" d="m87.5 183.1c-10.5 0-19.9-1.8-28-5.5-8.2-3.6-14.6-8.7-19.4-15.1-4.7-6.4-7.1-13.8-7.3-22.2h30.7c0.2 3.5 1.3 6.6 3.5 9.3 2.1 2.7 5 4.7 8.6 6.2 3.6 1.5 7.6 2.2 12 2.2 4.6 0 8.7-0.8 12.3-2.5 3.6-1.6 6.4-3.9 8.4-6.8 2-2.9 3-6.3 3-10.1 0-3.8-1.1-7.3-3.2-10.2-2.1-3-5.2-5.3-9.1-7-4-1.7-8.7-2.5-14.1-2.5h-13.4v-22.4h13.4c4.6 0 8.7-0.8 12.2-2.4 3.5-1.6 6.3-3.8 8.3-6.7 2-2.8 3-6.2 3-10 0-3.6-0.9-6.8-2.6-9.5-1.7-2.7-4.1-4.9-7.2-6.4-3.1-1.5-6.7-2.3-10.7-2.3-4.1 0-7.9 0.7-11.3 2.2-3.4 1.5-6.2 3.6-8.2 6.3q-3.1 4.1-3.3 9.6h-29.2c0.1-8.3 2.5-15.6 7.1-22 4.6-6.3 10.8-11.3 18.6-14.9 7.8-3.6 16.6-5.4 26.5-5.4q14.9 0 26.1 5.4c7.5 3.6 13.3 8.5 17.4 14.6 4.2 6.1 6.2 13 6.2 20.6 0 8.1-2.5 14.8-7.5 20.2-5 5.4-11.6 8.8-19.7 10.3v1.1c10.6 1.4 18.7 5 24.2 11 5.6 6 8.3 13.5 8.3 22.4 0 8.2-2.3 15.5-7.1 21.9-4.8 6.4-11.3 11.4-19.7 15.1-8.5 3.7-18 5.5-28.8 5.5z"/>
			<path class="s1" d="m221.4 184.3c-12.1 0-22.5-3-31.2-8.9-8.7-5.9-15.4-14.5-20.1-25.7q-7.1-16.8-6.9-40.5c0-15.7 2.3-29.1 7-40.2 4.7-11.1 11.4-19.5 20.1-25.3 8.7-5.8 19.1-8.7 31.1-8.7 12.1 0 22.4 2.9 31.1 8.7 8.7 5.8 15.4 14.3 20.1 25.3 4.7 11 7 24.4 7 40.1 0 15.8-2.3 29.3-7 40.5-4.7 11.2-11.3 19.8-20 25.7-8.7 6.1-19.1 9-31.2 9zm0-25.2c8.3 0 14.8-4.2 19.8-12.5 5-8.3 7.4-20.8 7.3-37.4q0-16.4-3.3-27.3c-2.2-7.3-5.4-12.7-9.4-16.4-4.1-3.7-8.8-5.5-14.3-5.5-8.2 0-14.8 4.1-19.7 12.3q-7.3 12.3-7.5 36.9c0 11.1 1.1 20.3 3.3 27.7 2.2 7.4 5.4 12.9 9.5 16.6 4 3.7 8.8 5.6 14.3 5.6z"/>
			<path class="s1" d="m357.8 184.3c-12.1 0-22.5-3-31.2-8.9-8.7-5.9-15.4-14.5-20.1-25.7q-7-16.8-6.9-40.5c0-15.7 2.3-29.1 7-40.2 4.7-11.1 11.4-19.5 20.1-25.3 8.7-5.8 19.1-8.7 31.1-8.7 12 0 22.4 2.9 31.1 8.7 8.7 5.8 15.4 14.3 20.1 25.3 4.7 11 7 24.4 7 40.1 0 15.8-2.3 29.3-7 40.5-4.7 11.2-11.3 19.8-20 25.7-8.7 6.1-19.1 9-31.2 9zm0-25.2c8.3 0 14.8-4.2 19.8-12.5 4.9-8.3 7.4-20.8 7.3-37.4q0-16.4-3.3-27.3c-2.2-7.3-5.4-12.7-9.4-16.4-4.1-3.7-8.8-5.5-14.3-5.5-8.2 0-14.8 4.1-19.7 12.3q-7.3 12.3-7.5 36.9c0 11.1 1.1 20.3 3.3 27.7 2.2 7.4 5.4 12.9 9.5 16.6 4 3.7 8.8 5.6 14.3 5.6z"/>
		</g>
	</g>
</svg>