<svg xmlns="http://www.w3.org/2000/svg" viewBox="0 0 267.4 247" width="267.4" height="247">
	<style type="text/css">
		.st0{opacity:0.1;enable-background:new;}
		.st1{fill:#08B8C1;}
		.st2{enable-background:new;}
		.st3{fill:none;stroke:#08B8C1;stroke-miterlimit:10;}
	</style>
	<g>
		<g class="st0">
			<path class="st1" d="M65,173.1c-10.5,0-19.9-1.8-28-5.5c-8.2-3.6-14.6-8.7-19.4-15.1c-4.7-6.4-7.1-13.8-7.3-22.2H41 c0.2,3.5,1.3,6.6,3.5,9.3c2.1,2.7,5,4.7,8.6,6.2c3.6,1.5,7.6,2.2,12,2.2c4.6,0,8.7-0.8,12.3-2.5c3.6-1.6,6.4-3.9,8.4-6.8 c2-2.9,3-6.3,3-10.1c0-3.8-1.1-7.3-3.2-10.2c-2.1-3-5.2-5.3-9.1-7c-4-1.7-8.7-2.5-14.1-2.5H48.8V86.5h13.4c4.6,0,8.7-0.8,12.2-2.4 c3.5-1.6,6.3-3.8,8.3-6.7c2-2.8,3-6.2,3-10c0-3.6-0.9-6.8-2.6-9.5c-1.7-2.7-4.1-4.9-7.2-6.4c-3.1-1.5-6.7-2.3-10.7-2.3 c-4.1,0-7.9,0.7-11.3,2.2c-3.4,1.5-6.2,3.6-8.2,6.3c-2.1,2.7-3.2,5.9-3.3,9.6H13.2c0.1-8.3,2.5-15.6,7.1-22 C24.9,39,31.1,34,38.9,30.4c7.8-3.6,16.6-5.4,26.5-5.4c9.9,0,18.6,1.8,26.1,5.4c7.5,3.6,13.3,8.5,17.4,14.6 c4.2,6.1,6.2,13,6.2,20.6c0,8.1-2.5,14.8-7.5,20.2c-5,5.4-11.6,8.8-19.7,10.3v1.1c10.6,1.4,18.7,5,24.2,11 c5.6,6,8.3,13.5,8.3,22.4c0,8.2-2.3,15.5-7.1,21.9c-4.8,6.4-11.3,11.4-19.7,15.1C85.3,171.3,75.7,173.1,65,173.1z"/>
			<path class="st1" d="M142.4,171.1v-22l51.3-47.5c4.4-4.2,8-8,11-11.4c3-3.4,5.2-6.7,6.8-10s2.3-6.8,2.3-10.6c0-4.2-1-7.9-2.9-10.9 s-4.6-5.4-7.9-7.1c-3.3-1.7-7.1-2.5-11.3-2.5c-4.4,0-8.3,0.9-11.5,2.7c-3.3,1.8-5.8,4.3-7.6,7.7c-1.8,3.3-2.7,7.3-2.7,11.9H141 c0-9.4,2.1-17.6,6.4-24.6c4.3-6.9,10.2-12.3,17.9-16.1c7.7-3.8,16.6-5.7,26.6-5.7c10.3,0,19.3,1.8,27,5.5 c7.7,3.6,13.6,8.7,17.9,15.1c4.3,6.4,6.4,13.8,6.4,22.1c0,5.4-1.1,10.8-3.2,16.1c-2.1,5.3-5.9,11.2-11.4,17.6 c-5.4,6.5-13.1,14.2-23,23.2l-21,20.6v1h60.5v24.9H142.4z"/>
		</g>
		<g class="st2">
			<path class="st3" d="M76.3,185.1c-10.5,0-19.9-1.8-28-5.5C40,176,33.6,171,28.9,164.6c-4.7-6.4-7.1-13.8-7.3-22.2h30.7 c0.2,3.5,1.3,6.6,3.5,9.3c2.1,2.7,5,4.7,8.6,6.2c3.6,1.5,7.6,2.2,12,2.2c4.6,0,8.7-0.8,12.3-2.5c3.6-1.6,6.4-3.9,8.4-6.8 c2-2.9,3-6.3,3-10.1c0-3.8-1.1-7.3-3.2-10.2c-2.1-3-5.2-5.3-9.1-7c-4-1.7-8.7-2.5-14.1-2.5H60.2V98.5h13.4c4.6,0,8.7-0.8,12.2-2.4 c3.5-1.6,6.3-3.8,8.3-6.7c2-2.8,3-6.2,3-10c0-3.6-0.9-6.8-2.6-9.5c-1.7-2.7-4.1-4.9-7.2-6.4c-3.1-1.5-6.7-2.3-10.7-2.3 c-4.1,0-7.9,0.7-11.3,2.2c-3.4,1.5-6.2,3.6-8.2,6.3c-2.1,2.7-3.2,5.9-3.3,9.6H24.5c0.1-8.3,2.5-15.6,7.1-22 C36.2,51,42.4,46,50.2,42.4C58,38.8,66.8,37,76.7,37c9.9,0,18.6,1.8,26.1,5.4c7.5,3.6,13.3,8.5,17.4,14.6c4.2,6.1,6.2,13,6.2,20.6 c0,8.1-2.5,14.8-7.5,20.2c-5,5.4-11.6,8.8-19.7,10.3v1.1c10.6,1.4,18.7,5,24.2,11c5.6,6,8.3,13.5,8.3,22.4 c0,8.2-2.3,15.5-7.1,21.9c-4.8,6.4-11.3,11.4-19.7,15.1C96.6,183.3,87.1,185.1,76.3,185.1z"/>
			<path class="st3" d="M153.7,183.1v-22l51.3-47.5c4.4-4.2,8-8,11-11.4c3-3.4,5.2-6.7,6.8-10c1.5-3.3,2.3-6.8,2.3-10.6 c0-4.2-1-7.9-2.9-10.9s-4.6-5.4-7.9-7.1c-3.3-1.7-7.1-2.5-11.3-2.5c-4.4,0-8.3,0.9-11.5,2.7c-3.3,1.8-5.8,4.3-7.6,7.7 c-1.8,3.3-2.7,7.3-2.7,11.9h-28.9c0-9.4,2.1-17.6,6.4-24.6c4.3-6.9,10.3-12.3,17.9-16.1c7.7-3.8,16.6-5.7,26.6-5.7 c10.3,0,19.3,1.8,27,5.5c7.7,3.6,13.6,8.7,17.9,15.1c4.3,6.4,6.4,13.8,6.4,22.1c0,5.4-1.1,10.8-3.2,16.1s-5.9,11.2-11.4,17.6 c-5.4,6.5-13.1,14.2-23,23.2l-21,20.6v1h60.5v24.9H153.7z"/>
		</g>
	</g>
</svg>