<svg xmlns="http://www.w3.org/2000/svg" viewBox="0 0 62 62" width="62" height="62">
	<path d="M60.1039 50.9423C58.0255 48.8625 54.8745 48.4972 52.4174 49.8427L44.4635 41.8834L47.1591 40.326V32.8152H55.0032L53.1235 34.6962L55.6901 37.2646L61.9557 30.9947L55.6901 24.7245L53.1235 27.2929L55.0123 29.1831H47.1591V21.6845L44.4635 20.1272L52.4154 12.1698C53.3582 12.6884 54.421 12.9652 55.5267 12.9652C57.2557 12.9652 58.8815 12.2914 60.1039 11.068C62.6278 8.54266 62.6278 4.43321 60.104 1.90763H60.1039C57.5801 -0.617835 53.4737 -0.617835 50.9496 1.90763C48.8714 3.98742 48.5063 7.14064 49.8508 9.59951L41.2092 18.247L32.8176 13.3988V6.9824L34.6722 8.83832L37.2388 6.27L30.9732 0L24.7074 6.26988L27.274 8.8382L29.1879 6.92307V13.4259L20.8433 18.2469L12.2037 9.60133C12.722 8.65793 12.9987 7.59442 12.9987 6.48794C12.9987 4.75768 12.3254 3.13095 11.1027 1.90763C8.57899 -0.617714 4.47247 -0.617956 1.94852 1.90763C-0.575315 4.43309 -0.575315 8.54254 1.94852 11.0681C3.21043 12.3308 4.86808 12.9622 6.52561 12.9622C7.59801 12.9622 8.66981 12.6962 9.63505 12.1677L17.589 20.1272L14.8932 21.6846V29.1832H6.95258L8.8322 27.3019L6.2655 24.7336L0 31.0036L6.26562 37.2736L8.83232 34.7053L6.94338 32.8151H14.8933V40.3259L17.589 41.8832L9.63699 49.8406C8.69427 49.322 7.63143 49.0452 6.52573 49.0452C4.79676 49.0452 3.1712 49.719 1.94852 50.9424C-0.575073 53.4679 -0.575073 57.5773 1.94852 60.1028C3.17108 61.3261 4.79651 62 6.52561 62C8.2547 62 9.88014 61.3262 11.1027 60.1028C13.181 58.0231 13.5461 54.87 12.2015 52.411L20.8432 43.7635L29.1879 48.5845V55.0657L27.2833 53.1597L24.7168 55.7281L30.9825 61.9979L37.2482 55.7281L34.6817 53.1597L32.8177 55.025V48.6118L41.2093 43.7635L49.8509 52.411C48.5064 54.8699 48.8715 58.023 50.9499 60.1028C52.2119 61.3655 53.8693 61.9969 55.5269 61.9969C57.1846 61.9969 58.8421 61.3655 60.104 60.1028C61.3266 58.8795 62 57.2527 62 55.5225C62 53.7922 61.3265 52.1655 60.1039 50.9423ZM53.5163 4.47595C54.0706 3.92131 54.7988 3.64393 55.5268 3.64393C56.2548 3.64393 56.9831 3.92131 57.5372 4.47595C58.6458 5.58534 58.6458 7.39041 57.5372 8.49968C57.0003 9.03701 56.2863 9.33303 55.5268 9.33303C54.7673 9.33303 54.0534 9.03713 53.5163 8.49968C52.4078 7.39041 52.4078 5.58534 53.5163 4.47595ZM4.51509 8.49968C3.40648 7.39029 3.40648 5.58534 4.51509 4.47595C5.6237 3.36668 7.42763 3.36655 8.53613 4.47607C9.07317 5.01339 9.36889 5.72784 9.36889 6.48781C9.36889 7.24779 9.07317 7.96236 8.53613 8.49968C7.42751 9.60908 5.62383 9.60895 4.51509 8.49968ZM8.53613 57.5345C7.9992 58.0718 7.28511 58.3678 6.52561 58.3678C5.76611 58.3678 5.05214 58.0719 4.51509 57.5345C3.4066 56.4251 3.4066 54.6201 4.51509 53.5107C5.05214 52.9734 5.76623 52.6774 6.52573 52.6774C7.28523 52.6774 7.9992 52.9733 8.53613 53.5107C9.64474 54.6201 9.64474 56.4252 8.53613 57.5345ZM31.0263 16.5578L41.7141 22.7327L31.0263 28.905L20.3385 22.7327L31.0263 16.5578ZM18.5229 25.8779L29.2115 32.0503V44.404L18.5229 38.2288V25.8779ZM32.8412 32.0503L43.5295 25.8779V38.2288L32.8412 44.404V32.0503ZM57.5375 57.5343C56.4291 58.6435 54.625 58.6437 53.5164 57.5343C52.4079 56.425 52.4079 54.62 53.5164 53.5106C54.0708 52.956 54.7988 52.6787 55.5269 52.6787C56.255 52.6787 56.9832 52.9561 57.5375 53.5106C58.0745 54.0479 58.3702 54.7625 58.3702 55.5225C58.3702 56.2825 58.0744 56.997 57.5375 57.5343Z" fill="white"/>
</svg>