<svg xmlns="http://www.w3.org/2000/svg" viewBox="0 0 70 70" width="70" height="70">
	<path d="M27.7966 18.1409C26.9421 17.2864 25.5579 17.2864 24.7034 18.1409L18.1409 24.7034C17.2864 25.5579 17.2864 26.9421 18.1409 27.7966L24.7034 34.3591C25.1306 34.7864 25.6903 35 26.25 35C26.8097 35 27.3694 34.7864 27.7966 34.3591C28.6511 33.5046 28.6511 32.1204 27.7966 31.2659L22.7808 26.25L27.7966 21.2341C28.6511 20.3796 28.6511 18.9954 27.7966 18.1409Z" fill="white"/>
	<path d="M45.2966 18.1409C44.4421 17.2864 43.0579 17.2864 42.2034 18.1409C41.3489 18.9954 41.3489 20.3796 42.2034 21.2341L47.2192 26.25L42.2034 31.2659C41.3489 32.1204 41.3489 33.5046 42.2034 34.3591C42.6306 34.7864 43.1903 35 43.75 35C44.3097 35 44.8694 34.7864 45.2966 34.3591L51.8591 27.7966C52.7136 26.9421 52.7136 25.5579 51.8591 24.7034L45.2966 18.1409Z" fill="white"/>
	<path d="M37.8796 17.6122C36.7314 17.2244 35.4945 17.8503 35.1122 18.9954L30.7372 32.1204C30.3548 33.2664 30.9743 34.5055 32.1204 34.8878C32.35 34.9648 32.5839 35.0011 32.8125 35.0011C33.7289 35.0011 34.5824 34.4211 34.8878 33.5046L39.2628 20.3796C39.6452 19.2335 39.0257 17.9945 37.8796 17.6122Z" fill="white"/>
	<path d="M56.875 4.375H13.125C8.30032 4.375 4.375 8.30032 4.375 13.125V39.375C4.375 44.1997 8.30032 48.125 13.125 48.125H28.4375V52.5H25.4147C23.7463 52.5 22.2467 53.4271 21.5012 54.9182L17.7307 62.4591C17.3921 63.1374 17.4284 63.9427 17.8268 64.5879C18.2253 65.2319 18.9291 65.625 19.6875 65.625H50.3125C51.0709 65.625 51.7747 65.2319 52.1732 64.5879C52.5716 63.9427 52.6079 63.1374 52.2693 62.4591L48.4988 54.9182C47.7533 53.4271 46.2537 52.5 44.5853 52.5H41.5625V48.125H56.875C61.6997 48.125 65.625 44.1997 65.625 39.375V13.125C65.625 8.30032 61.6997 4.375 56.875 4.375ZM39.375 59.0625C40.583 59.0625 41.5625 58.083 41.5625 56.875H44.5853L46.7728 61.25H23.2272L25.4147 56.875H28.4375C28.4375 58.083 29.417 59.0625 30.625 59.0625C31.833 59.0625 32.8125 58.083 32.8125 56.875V48.125H37.1875V56.875C37.1875 58.083 38.167 59.0625 39.375 59.0625ZM61.25 39.375C61.25 41.7879 59.2879 43.75 56.875 43.75H13.125C10.7121 43.75 8.75 41.7879 8.75 39.375V13.125C8.75 10.7121 10.7121 8.75 13.125 8.75H56.875C59.2879 8.75 61.25 10.7121 61.25 13.125V39.375Z" fill="white"/>
</svg>