<svg xmlns="http://www.w3.org/2000/svg" viewBox="0 0 70 70" width="70" height="70">
	<path d="M58.3226 25.7309C55.0874 12.8428 42.017 5.01756 29.1288 8.25279C19.057 10.7811 11.7438 19.486 10.9903 29.8428C3.8389 31.0222 -1.00246 37.7755 0.176882 44.9269C1.22526 51.2846 6.73415 55.9405 13.1775 55.915H24.1139V51.5405H13.1775C8.34562 51.5405 4.42851 47.6234 4.42851 42.7914C4.42851 37.9595 8.34562 34.0424 13.1775 34.0424C14.3856 34.0424 15.3648 33.0632 15.3648 31.8551C15.3539 20.9832 24.1586 12.1609 35.0305 12.1501C44.4417 12.1406 52.5432 18.794 54.3637 28.0274C54.5434 28.9493 55.2916 29.6536 56.2228 29.7772C62.2025 30.6287 66.3596 36.1665 65.5082 42.146C64.7436 47.5155 60.1591 51.5134 54.7355 51.5405H45.9865V55.915H54.7355C63.1914 55.8894 70.0255 49.0138 69.9998 40.5578C69.9785 33.5189 65.1605 27.4013 58.3226 25.7309Z" fill="white"/>
	<path d="M33.4972 34.6769L24.7482 43.4259L27.8322 46.5099L32.8629 41.5011V62.4769H37.2374V41.5011L42.2463 46.5099L45.3303 43.4259L36.5812 34.6769C35.7281 33.8287 34.3504 33.8287 33.4972 34.6769Z" fill="white"/>
</svg>