<svg xmlns="http://www.w3.org/2000/svg" viewBox="0 0 22 22" width="22" height="22">
	<path d="M12.8386 13.479C12.2913 13.8439 11.6555 14.0368 11 14.0368C10.3446 14.0368 9.70879 13.8439 9.16145 13.479L0.14648 7.46883C0.0964648 7.43548 0.0477383 7.40072 0 7.36497V17.2133C0 18.3424 0.916309 19.2385 2.02525 19.2385H19.9747C21.1038 19.2385 22 18.3222 22 17.2133V7.36493C21.9521 7.40077 21.9033 7.43561 21.8532 7.469L12.8386 13.479Z" fill="black"/>
	<path d="M0.861523 6.39623L9.8765 12.4064C10.2178 12.634 10.6089 12.7477 11 12.7477C11.3911 12.7477 11.7822 12.6339 12.1235 12.4064L21.1385 6.39623C21.6779 6.03679 22 5.43523 22 4.78597C22 3.6696 21.0918 2.76141 19.9754 2.76141H2.02456C0.908231 2.76146 0 3.66964 0 4.78705C0 5.43523 0.322094 6.03679 0.861523 6.39623Z" fill="black"/>
</svg>
