<svg xmlns="http://www.w3.org/2000/svg" viewBox="0 0 66 66" width="66" height="66">
	<path d="M41.25 57.75H24.75C22.4751 57.75 20.625 55.8999 20.625 53.625V49.5C20.625 47.2251 22.4751 45.375 24.75 45.375H41.25C43.5239 45.375 45.375 47.2251 45.375 49.5V53.625C45.375 55.8999 43.5239 57.75 41.25 57.75ZM24.75 49.5V53.625H41.2521L41.25 49.5H24.75Z" fill="white"/>
	<path d="M33 66C28.4509 66 24.75 62.2991 24.75 57.75V55.6875C24.75 54.5486 25.6736 53.625 26.8125 53.625C27.9514 53.625 28.875 54.5486 28.875 55.6875V57.75C28.875 60.0249 30.7251 61.875 33 61.875C35.2749 61.875 37.125 60.0249 37.125 57.75V55.6875C37.125 54.5486 38.0476 53.625 39.1875 53.625C40.3274 53.625 41.25 54.5486 41.25 55.6875V57.75C41.25 62.2991 37.5501 66 33 66Z" fill="white"/>
	<path d="M39.1875 49.5H26.8125C25.6736 49.5 24.75 48.5764 24.75 47.4375V45.1675C24.75 44.3647 24.2767 43.6468 23.5164 43.2953C15.4949 39.5944 10.3125 31.5055 10.3125 22.6875C10.3125 16.2463 13.0688 10.0839 17.8757 5.78053C22.6764 1.48145 29.1227 -0.569083 35.5823 0.142892C45.929 1.29191 54.318 9.6275 55.5285 19.9643C56.6785 29.7924 51.4317 39.1693 42.4768 43.2995C41.7194 43.6478 41.2502 44.3639 41.2502 45.1677V47.4377C41.2502 48.5766 40.3274 49.5 39.1875 49.5ZM28.875 45.375H37.125V45.1675C37.125 42.7727 38.5471 40.5691 40.7484 39.554C48.08 36.1731 52.372 28.4932 51.4315 20.4437C50.4426 11.9953 43.5864 5.1824 35.1269 4.24376C29.7662 3.64048 24.6128 5.28615 20.6269 8.85427C16.6933 12.375 14.4373 17.4176 14.4373 22.6875C14.4373 29.9021 18.679 36.5206 25.2442 39.55C27.4496 40.5683 28.8748 42.7737 28.8748 45.1675L28.875 45.375Z" fill="white"/>
	<path d="M37.9267 27.0068C35.4876 27.0068 33.125 25.9696 31.4492 24.057C31.0988 23.6573 30.9165 23.1376 30.9396 22.6069C31.0957 19.0629 33.3605 16.0135 36.7121 14.8372C40.0616 13.6579 43.7355 14.6267 46.0719 17.2945C46.4223 17.6942 46.6057 18.2129 46.5816 18.7436C46.4265 22.2876 44.1606 25.337 40.809 26.5122C39.8623 26.8455 38.8876 27.0068 37.9267 27.0068ZM35.1794 21.9322C36.3759 22.8639 37.971 23.1396 39.4435 22.6211C40.9177 22.1045 41.9915 20.8929 42.3419 19.4187C41.1454 18.4862 39.5503 18.2102 38.0779 18.7288C36.6036 19.2464 35.5299 20.458 35.1794 21.9322Z" fill="white"/>
	<path d="M28.0733 27.0068C27.1105 27.0068 26.1376 26.8457 25.1891 26.5124C21.8406 25.3382 19.5756 22.2886 19.4184 18.7448C19.3953 18.2142 19.5774 17.6944 19.927 17.2947C22.2634 14.625 25.9413 13.6612 29.29 14.8374C32.6395 16.0137 34.9045 19.0631 35.0606 22.6071C35.0848 23.1378 34.9016 23.6575 34.551 24.0572C32.8752 25.9696 30.5114 27.0068 28.0733 27.0068ZM23.6593 19.4174C24.0098 20.8927 25.0823 22.1032 26.5557 22.6199C28.0292 23.1365 29.6233 22.8636 30.8208 21.932C30.4693 20.4577 29.3968 19.2462 27.9223 18.7285C26.4489 18.2129 24.8558 18.4858 23.6593 19.4174Z" fill="white"/>
	<path d="M33 35.1552C31.8611 35.1552 30.9375 34.2316 30.9375 33.0927V22.7802C30.9375 21.6412 31.8611 20.7177 33 20.7177C34.1389 20.7177 35.0625 21.6412 35.0625 22.7802V33.0927C35.0625 34.2316 34.1389 35.1552 33 35.1552Z" fill="white"/>
</svg>