<svg xmlns="http://www.w3.org/2000/svg" viewBox="0 0 104 50" width="104" height="50">
	<path d="M35.0808 25.4697C34.9015 25.5155 34.7112 25.5659 34.5192 25.6133C32.1398 26.1984 30.4155 27.5925 29.5272 29.8604C28.6151 32.1881 28.8213 34.4733 30.2458 36.5693C31.2816 38.0928 32.7331 39.0579 34.5526 39.4554C34.7223 39.4932 34.8904 39.5374 35.0951 39.5878C35.1157 39.7455 35.1506 39.8891 35.1506 40.0326C35.1538 42.1758 35.1649 44.3191 35.1506 46.4624C35.1395 47.9811 34.2797 49.2759 32.9155 49.7632C30.5535 50.6054 28.6643 49.0772 28.255 47.3692C28.1979 47.1295 28.1582 46.8834 28.1091 46.6264C27.8077 46.6201 27.6395 46.8377 27.4412 46.9749C25.801 48.1088 24.0196 48.94 22.0891 49.4415C20.3093 49.9036 18.4961 50.0565 16.6592 49.9667C9.80486 49.6323 3.66116 45.2559 1.16434 38.9176C0.109459 36.2334 -0.184004 33.4514 0.104701 30.5969C0.504445 26.6541 2.18274 23.3217 4.91909 20.4735C7.33184 17.9628 10.203 16.2627 13.6231 15.5073C15.6472 15.061 17.6903 14.9963 19.7493 15.2234C22.6332 15.542 25.249 16.5545 27.6173 18.212C27.7394 18.2971 27.8759 18.3618 28.0091 18.4312C28.0266 18.4407 28.0567 18.4217 28.1233 18.4044C28.1471 18.253 28.1677 18.0858 28.2011 17.9186C28.4771 16.5371 29.5542 15.4063 30.9089 15.1666C32.3841 14.9033 33.6135 15.3559 34.5224 16.5687C34.9285 17.1096 35.1411 17.7341 35.1458 18.4028C35.1601 20.6722 35.1506 22.9417 35.1474 25.2095C35.1474 25.2805 35.1125 25.3515 35.0824 25.4666L35.0808 25.4697ZM17.5237 43.0322C23.1582 43.1379 28.0646 38.6242 28.136 32.6076C28.209 26.5106 23.0535 22.0207 17.5999 21.9986C11.802 21.9749 7.01775 26.9017 6.97492 32.4578C6.93209 38.129 11.7401 43.1315 17.5222 43.0322H17.5237Z" fill="white"/>
	<path d="M98.5419 24.5141C96.8763 23.1609 95.0092 22.2651 92.8407 22.0664C91.0435 21.9008 89.2986 22.0948 87.6234 22.7887C86.0213 23.4527 84.711 24.5014 83.5784 25.7931C80.2964 29.5339 80.2742 35.6168 83.7037 39.397C85.6422 41.534 87.9978 42.802 90.9166 42.9881C93.7798 43.171 96.3306 42.3998 98.4895 40.5751C98.856 40.5751 99.086 40.7391 99.3017 40.9095C100.706 42.0182 101.9 43.3193 102.769 44.8821C103.29 45.8189 103.079 45.8473 102.457 46.3189C99.9679 48.2082 97.1713 49.3737 94.0685 49.8153C85.896 50.976 77.7948 46.0886 75.0854 38.3451C74.1876 35.7776 73.9258 33.1328 74.259 30.4423C75.0267 24.2333 79.0908 18.8744 84.8649 16.4189C86.7732 15.6082 88.7687 15.184 90.8436 15.1052C93.1215 15.0168 95.3471 15.2707 97.5076 16.023C99.3699 16.6712 101.056 17.6269 102.598 18.8444C102.658 18.8917 102.714 18.9422 102.776 18.9879C103.009 19.1598 103.093 19.3775 102.964 19.6472C102.825 19.9421 102.701 20.2496 102.525 20.524C101.733 21.7668 100.775 22.8723 99.6697 23.8501C99.3683 24.1166 99.0558 24.38 98.5466 24.5156L98.5419 24.5141Z" fill="white"/>
	<path d="M36.1468 27.0552C39.4732 27.164 41.6512 29.9002 41.5973 32.616C41.5465 35.1993 39.4669 37.8519 36.0817 37.9749C32.8473 37.8046 30.6186 35.327 30.6408 32.4725C30.6646 29.3688 33.2391 27.0899 36.1468 27.0552Z" fill="white"/>
	<path d="M65.325 18.5875V17.5466C65.325 13.0093 65.325 8.47204 65.325 3.93318C65.325 3.63038 65.3139 3.326 65.3519 3.02635C65.5629 1.40353 66.9462 0.113469 68.5753 0.00622685C70.2647 -0.104169 71.7907 0.984021 72.2111 2.61158C72.2729 2.85287 72.2983 3.10678 72.3173 3.35596C72.3348 3.60672 72.3237 3.86063 72.3237 4.11139C72.3237 18.026 72.3237 31.9423 72.3237 45.8569C72.3237 46.1345 72.3269 46.412 72.3189 46.688C72.2698 48.5348 70.6359 49.839 69.2844 49.9621C67.4855 50.1261 65.9008 49.1089 65.4582 47.4324C65.3884 47.1659 65.3377 46.8946 65.2774 46.6234C64.9776 46.6186 64.8142 46.8394 64.6127 46.9782C62.8424 48.1957 60.9151 49.0615 58.8164 49.5489C57.5014 49.8548 56.1673 49.981 54.819 49.9873C51.74 50.0031 48.8276 49.3407 46.1594 47.7888C42.9948 45.9484 40.5567 43.4093 38.8958 40.1494C38.7594 39.8829 38.6484 39.6038 38.5103 39.2946C38.688 39.1953 38.8308 39.1022 38.9846 39.0328C41.3847 37.9336 42.8235 36.0837 43.1661 33.4894C43.615 30.0766 41.8447 27.4034 39.2305 26.1323C39.0069 26.0234 38.7832 25.9131 38.5262 25.7885C39.1227 24.3423 39.9221 23.0648 40.8707 21.8773C41.8051 20.7071 42.8647 19.6615 44.0433 18.7341C45.2426 17.791 46.5401 17.0104 47.9504 16.419C49.359 15.8292 50.8215 15.4412 52.3412 15.2519C53.8593 15.0627 55.3742 15.0548 56.8939 15.2172C58.3897 15.3765 59.8332 15.7361 61.2339 16.2834C62.6489 16.8369 63.9528 17.5923 65.3266 18.5875H65.325ZM54.7476 43.0323C60.482 43.1317 65.2758 38.4746 65.3266 32.6062C65.3773 26.7 60.4138 22.0192 54.8095 21.9987C49.1797 21.9782 44.1829 26.7016 44.1623 32.5037C44.1401 38.3279 49.1083 43.1396 54.7492 43.0323H54.7476Z" fill="white"/>
</svg>