<svg xmlns="http://www.w3.org/2000/svg" viewBox="0 0 1400 493" width="1400" height="493">
	<g>
		<path d="M287.684 493C286.949 493 286.432 492.764 286.074 492.229C285.095 490.761 286.051 489.189 294.673 480.946C319.489 457.213 328.299 431.226 328.384 430.968C328.499 430.617 328.761 430.333 329.101 430.185C329.44 430.038 329.825 430.045 330.161 430.2C348.808 438.908 364.562 439.391 374.499 438.262C377.38 437.934 379.955 437.458 382.179 436.93C375.681 436.554 371.906 434.222 368.452 432.082C363.802 429.204 359.783 426.717 349.757 429.078C347.91 429.514 346.074 429.732 344.261 429.732C336.899 429.732 329.873 426.167 323.689 419.23C317.978 412.821 315.023 405.881 314.901 405.589C314.816 405.386 314.783 405.161 314.809 404.943C314.831 404.759 316.796 386.447 307.399 379.469C302.15 375.573 294.204 375.857 283.783 380.325C263.807 388.886 248.99 383.661 240.08 377.768C230.461 371.411 225.633 363.142 225.43 362.791C225.083 362.19 225.275 361.422 225.862 361.053C226.453 360.685 227.225 360.847 227.617 361.422C229.501 364.186 243.645 368.824 258.576 369.322C269.421 369.688 277.123 367.673 280.27 363.658C286.705 355.456 295.922 362.588 303.324 368.319C307.938 371.89 312.707 375.58 315.536 374.746C316.323 374.514 316.752 374.329 316.981 374.204C316.737 373.879 316.275 373.396 315.884 372.986C313.265 370.245 308.392 365.142 310.649 354.478C312.426 346.106 309.131 334.063 306.224 323.436C303.106 312.031 300.41 302.179 303.886 297.608C305.009 296.128 306.213 296.15 306.83 296.298C311.052 297.294 314.133 310.193 319.869 340.667C321.351 348.538 322.751 355.973 323.985 361.16C324.428 363.027 325.285 365.293 326.851 365.5C328.122 365.666 331.967 364.776 340.223 352.921C344.929 346.161 348.723 339.169 348.76 339.099C348.959 338.734 349.318 338.487 349.731 338.431C350.145 338.376 350.555 338.527 350.839 338.83C351.744 339.797 352.661 340.83 353.58 341.911C351.877 323.145 349.118 303.943 339.174 296.176C335.225 293.091 330.449 292.058 324.564 293.01C311.085 295.194 300.75 293.589 293.846 288.239C288.563 284.144 287.418 279.347 287.37 279.144C287.263 278.672 287.429 278.177 287.802 277.863C288.175 277.554 288.693 277.476 289.14 277.668L300.122 282.369L295.009 275.878C294.625 275.388 294.644 274.694 295.057 274.225C295.471 273.757 296.158 273.653 296.694 273.974L310.01 281.974L305.186 274.34C304.92 273.923 304.92 273.388 305.182 272.971C306.117 271.469 307.026 269.713 307.912 267.768C300.026 257.511 299.346 247.238 297.628 221.31L297.403 217.904C296.771 208.473 292.324 201.514 284.873 198.304C284.064 197.957 283.233 197.655 282.383 197.4C286.354 203.732 289.177 212.377 290.813 223.273C293.04 238.102 291.301 253.127 285.911 265.584C280.869 277.236 273.097 285.07 265.114 286.542C264.35 286.682 263.441 286.785 262.425 286.785C255.329 286.785 242.902 281.778 235.895 249.854C231.75 230.97 236.9 213.934 250.032 203.119C257.837 196.688 267.534 193.397 276.34 193.81C274.67 192.102 272.853 190.722 270.884 189.674C259.163 183.438 244.919 190.183 237.269 193.81L236.796 194.035C235.245 194.769 233.468 194.744 231.521 193.995C230.616 197.78 229.331 201.219 227.717 204.101C223.539 211.554 224.906 212.905 227.384 215.358C229.331 217.285 231.994 219.919 232.541 225.896C233.143 232.542 231.071 242.176 226.202 255.359C221.829 267.204 227.392 271.347 232.77 275.358C236.216 277.926 239.781 280.587 239.87 285.11C239.977 290.501 235.91 299.386 204.94 324.41C204.445 324.812 203.728 324.79 203.255 324.362C202.783 323.934 202.694 323.226 203.049 322.694C203.215 322.444 219.527 297.615 213.898 286.992C212.276 283.933 208.294 282.933 203.684 281.778C198.187 280.402 191.959 278.841 188.797 273.037C185.639 267.241 186.193 258.09 190.493 245.083C186.784 243.087 174.236 235.586 171.059 223.919C170.915 223.391 171.122 222.83 171.572 222.517C172.023 222.207 172.622 222.21 173.065 222.531C178.898 226.741 195.402 236.431 201.608 230.782C204.419 228.221 210.1 218.133 215.091 204.485C216.886 199.574 219.291 192.238 220.809 184.571C220.739 184.482 220.669 184.39 220.602 184.302C213.015 174.372 204.641 156.868 208.789 152.038C210.318 150.26 212.945 150.367 216.605 152.359C221.068 154.791 223.749 159.499 224.581 166.358C225.234 171.767 224.677 177.915 223.568 183.892C225.733 186.586 227.809 188.659 229.686 190.032C231.725 177.9 229.955 162.879 222.804 151.902C214.895 139.762 201.719 134.191 184.708 135.785C175.27 136.67 167.746 140.445 161.935 147.256C166.959 144.824 172.064 143.179 176.556 142.474C181.834 141.648 183.862 141.607 184.719 143.039C185.65 144.592 184.294 146.382 181.321 150.296C177.143 155.805 169.364 166.056 162.892 182.748C155.57 201.636 162.072 213.558 168.362 225.088C173.549 234.597 178.451 243.582 175.052 255.459C167.679 281.243 151.145 288.785 150.447 289.095C150.048 289.269 149.59 289.235 149.224 288.999C148.858 288.763 148.637 288.361 148.629 287.929C148.563 282.468 147.798 279.199 146.354 278.221C144.976 277.288 142.453 278.255 139.531 279.373C135.224 281.022 129.864 283.073 124.416 280.454C121.505 279.052 119.588 276.923 118.716 274.118C116.008 265.429 123.817 251.736 131.371 238.497C136.724 229.11 141.799 220.222 142.486 214.255C141.153 216.864 139.258 219.543 136.565 219.543C136.547 219.543 136.528 219.543 136.506 219.543C133.407 219.498 130.559 215.997 127.537 208.521C123.802 199.278 120.264 195.596 118.76 194.349C117.733 195.404 116.721 196.382 115.728 197.29C112.883 204.308 107.239 215.849 100.324 217.521C97.4942 218.207 94.7755 217.27 92.2451 214.739C88.2002 210.698 87.1142 209.613 87.5907 208.208C88.0008 206.997 89.2789 206.828 91.2145 206.569C95.3148 206.02 103.338 204.942 113.555 195.78C114.213 194.135 114.745 192.659 115.129 191.497C113.895 187.32 102.81 150.064 93.0024 127.125C82.6002 102.779 70.8498 63.0293 70.7316 62.6308C70.7168 62.5865 70.7057 62.5385 70.6983 62.4905C70.0261 58.6827 68.8994 52.3104 67.2556 46.1558C65.0023 37.7468 63.9015 35.2525 58.8556 27.0759C54.3194 19.7296 44.7669 9.18785 42.6576 8.67866C41.9078 8.49786 41.5716 8.54214 41.4608 8.57166C41.3795 8.90005 41.2281 11.0143 47.0165 19.3163C50.3337 24.0762 53.9205 28.4375 53.9574 28.4818C54.3711 28.9836 54.3453 29.7105 53.902 30.1828C53.4587 30.655 52.731 30.7288 52.2065 30.3525L42.1627 23.1758C42.0814 23.1168 42.0038 23.0467 41.9373 22.9729C41.797 22.8106 27.8191 6.83746 15.1489 2.9927C14.4433 2.77869 13.9631 2.68276 13.6454 2.64217C13.9668 3.30264 14.857 4.68262 17.3394 7.36141C21.4766 10.2874 26.7035 14.9365 33.2603 22.198C33.7146 22.7036 33.7035 23.4747 33.227 23.9618C32.7542 24.4488 31.9822 24.4894 31.465 24.0503C31.4096 24.006 25.9573 19.3901 20.7784 14.4679C18.6175 12.4164 16.9072 10.6933 15.5589 9.2432C9.66706 5.13647 6.70821 5.18074 5.65544 5.42427C5.06441 5.56079 4.74673 5.82646 4.63221 6.05522C4.79105 6.63083 6.23539 9.29486 18.4586 18.6927C18.828 18.9769 19.2011 19.261 19.5705 19.5451C23.1943 21.6889 27.5125 24.6887 32.3774 28.8913C32.8983 29.3415 32.9758 30.1163 32.5547 30.6587C32.1336 31.2011 31.3579 31.3192 30.7964 30.9281C30.7299 30.8801 24.6127 26.6221 18.1336 21.6962C11.1336 17.5711 5.90293 16.2353 3.47601 16.549C2.86651 16.6265 2.6301 16.7962 2.59316 16.8479C2.57469 16.9253 2.64857 17.4308 3.4243 18.3348C6.28341 21.652 25.008 32.6881 31.9822 36.662C32.588 37.0089 32.8096 37.7726 32.4845 38.3888C32.1558 39.005 31.3985 39.2486 30.7705 38.9423C23.4381 35.33 10.3837 30.1163 6.56045 31.5037C6.409 31.559 6.29449 31.6181 6.20583 31.6771C8.23381 33.7286 19.1125 39.3888 29.1637 44.0084C29.1858 44.0195 29.208 44.0305 29.2302 44.0416C33.2898 46.2001 38.1547 50.2663 42.4471 53.8527C42.9901 54.3066 43.522 54.7531 44.0392 55.1811C49.7205 59.904 53.3922 62.2101 53.4292 62.2323C53.7284 62.4204 53.9389 62.7193 54.0091 63.0625C64.6957 114.177 75.4488 143.389 75.5559 143.677C75.8699 144.511 83.2873 164.709 84.1517 207.396C85.101 254.599 99.2599 260.234 99.404 260.285C99.9359 260.459 100.276 260.949 100.276 261.507C100.276 298.744 111.638 317.606 111.753 317.791C111.912 318.045 111.974 318.348 111.934 318.643C111.55 321.436 102.285 387.229 82.168 401.449C42.4471 429.521 8.13776 464.22 7.79423 464.57C7.29185 465.08 6.47549 465.087 5.96573 464.585C5.45596 464.083 5.44858 463.268 5.95095 462.759C6.29449 462.408 40.759 427.551 80.672 399.342C99.0604 386.347 108.454 324.602 109.307 318.735C107.579 315.728 97.8414 297.242 97.69 262.318C94.2805 260.414 82.434 250.703 81.5622 207.448C80.7089 165.27 73.2065 144.784 73.129 144.581C73.0181 144.286 62.2799 115.122 51.5859 64.1214C50.4038 63.3466 47.0904 61.0847 42.3806 57.1662C41.8634 56.7345 41.3278 56.288 40.7811 55.8342C36.5996 52.3362 31.8566 48.3734 28.0407 46.3403C27.5125 46.0968 21.5172 43.3258 15.7067 40.3334C12.1309 38.4922 9.31983 36.924 7.34726 35.6768C4.43644 33.832 2.88129 32.4741 3.5425 30.9724C3.81216 30.3636 4.3995 29.5407 5.67391 29.0795C7.93829 28.2567 11.8465 28.943 15.9726 30.1864C9.61534 26.2273 3.22482 22.032 1.46281 19.9842C-0.919779 17.2168 0.188403 15.5601 0.77574 14.9734C2.20529 13.5492 5.36361 13.5344 9.62273 14.8849C2.1388 8.54583 1.75463 6.64928 2.10925 5.40582C2.46387 4.16605 3.57205 3.22147 5.07179 2.87463C6.37945 2.57206 8.4185 2.62003 11.4254 3.90408C10.6533 2.42816 10.8122 1.67176 11.1299 1.09246C12.0903 -0.671261 14.761 0.140493 15.9024 0.487333C28.846 4.41327 42.3732 19.5193 43.788 21.128L46.588 23.1279C45.9896 22.3087 45.3801 21.4601 44.7817 20.5967C38.3247 11.3021 38.3801 8.57166 39.2851 7.13264C39.769 6.35779 40.855 5.5571 43.2708 6.14009C46.95 7.02933 57.3189 19.6336 61.0609 25.6923C66.225 34.057 67.4477 36.8281 69.7601 45.4622C71.4224 51.6868 72.5564 58.0886 73.2398 61.9445C73.7939 63.8189 85.2488 102.355 95.3887 126.088C105.798 150.433 117.615 190.725 117.733 191.131C117.781 191.297 117.796 191.471 117.778 191.644C118.165 191.32 118.72 191.246 119.181 191.478C119.399 191.585 124.589 194.279 129.945 207.536C133.362 215.989 135.708 216.93 136.554 216.941H136.572C138.56 216.941 140.462 212.599 141.375 210.506C142.195 208.628 142.693 207.496 143.957 207.787C145.353 208.108 145.294 209.661 145.15 213.421C144.895 220 139.42 229.597 133.625 239.755C126.684 251.921 118.816 265.713 121.191 273.332C121.852 275.454 123.278 277.019 125.546 278.111C129.986 280.247 134.567 278.494 138.611 276.945C142.062 275.624 145.32 274.377 147.813 276.07C149.834 277.439 150.89 280.461 151.16 285.752C155.526 283.077 166.94 274.447 172.574 254.74C175.68 243.877 171.026 235.346 166.098 226.313C159.833 214.827 152.73 201.806 160.487 181.804C167.088 164.775 175.012 154.333 179.267 148.725C180.53 147.061 181.827 145.348 182.266 144.47C181.428 144.411 179.651 144.592 176.962 145.013C171.299 145.902 164.609 148.352 158.448 152.023C157.561 153.436 156.73 154.938 155.943 156.536C150.687 167.24 148.932 179.822 147.769 188.146C146.742 195.515 146.317 198.563 144.178 198.85C142.549 199.064 141.278 197.452 139.125 192.441C135.22 183.346 135.545 174.572 140.089 166.358C143.713 159.812 149.856 154.263 156.638 150.13C162.338 141.338 171.004 134.464 184.468 133.202C207.249 131.065 219.069 141.419 224.972 150.481C229.963 158.141 232.84 168.207 233.069 178.822C233.162 183.187 232.814 187.464 232.068 191.438C233.476 192.057 234.706 192.157 235.692 191.688L236.165 191.463C243.652 187.914 259.237 180.534 272.103 187.383C275.11 188.984 277.795 191.264 280.149 194.22C282.154 194.574 284.083 195.142 285.907 195.928C294.293 199.54 299.298 207.285 299.992 217.731L300.218 221.14C301.843 245.677 302.512 255.736 309.098 265.045C316.353 247.342 321.587 218.351 321.646 218.011C321.657 217.956 321.668 217.904 321.687 217.849C328.853 195.12 332.037 144.315 332.388 138.36C330.526 136.456 323.046 128.6 320.93 123.173C319.352 119.121 317.897 114.133 317.029 109.827C315.5 102.222 316.667 101.492 317.295 101.097C317.764 100.802 318.318 100.746 318.861 100.938C319.759 101.255 320.889 102.27 323.031 107.067C322.282 98.6025 323.135 97.7797 323.652 97.2816C324.047 96.9015 324.576 96.7355 325.107 96.8351C326.068 97.0122 326.607 97.8904 327.427 100.606C327.871 102.071 328.38 104.074 328.945 106.558C329.806 98.2446 330.829 98.1154 331.686 98.0048C332.159 97.942 332.628 98.0896 333.009 98.418C333.493 98.835 334.35 99.5655 335.04 106.513C335.938 102.086 336.492 101.842 336.972 101.632C337.423 101.433 337.937 101.488 338.339 101.772C338.893 102.159 339.373 102.495 341.128 112.015C341.823 115.771 342.436 119.513 342.617 120.623C344.146 122.52 347.496 125.734 349.38 124.959C350.481 124.505 352.875 121.523 354.622 119.347C358.076 115.044 359.675 113.17 361.352 113.875C362.808 114.483 362.564 116.535 362.461 117.409C361.519 125.346 351.696 136.681 350.049 138.533C348.361 145.459 349.148 160.111 349.842 173.062C350.245 180.59 350.629 187.7 350.573 193.308C350.426 208.267 340.918 244.301 337.792 256.142C337.586 256.928 337.408 257.595 337.268 258.131C335.395 265.274 341.933 268.746 342.21 268.894C342.632 269.111 342.901 269.539 342.909 270.012C342.92 270.484 342.672 270.923 342.262 271.159C333.205 276.362 322.791 268.539 318.059 264.204C319.485 274.406 325.115 280.852 325.178 280.922C325.628 281.428 325.61 282.195 325.137 282.682C324.664 283.166 323.9 283.206 323.379 282.771C317.472 277.823 313.065 273.827 309.733 269.986C309.102 271.299 308.459 272.524 307.805 273.635L315.112 285.191C315.433 285.697 315.363 286.357 314.942 286.785C314.524 287.213 313.863 287.298 313.353 286.988L301.407 279.815L305.297 284.756C305.663 285.221 305.666 285.874 305.304 286.339C304.946 286.808 304.311 286.974 303.771 286.741L291.116 281.325C291.969 282.786 293.365 284.623 295.585 286.313C301.817 291.047 311.698 292.482 324.158 290.464C330.7 289.405 336.289 290.641 340.773 294.147C352.236 303.102 354.755 325.041 356.495 345.483C364.732 355.976 372.634 369.119 374.758 372.724C387.04 368.23 390.032 357.581 390.608 354.847C380.705 345.08 348.139 304.408 351.715 263.757C353.584 242.571 366.336 233.335 376.701 229.321C385.633 225.86 394.181 225.594 397.431 225.646C397.431 221.782 397.113 217.085 396.349 212.905C389.907 211.285 383.856 210.927 378.396 211.809C376.834 213.916 375.116 216.458 373.228 219.517C366.125 231.029 360.47 239.32 356.425 244.165C352.757 248.559 350.437 250.131 348.675 249.43C346.518 248.57 346.983 245.131 347.286 243.696C350.54 229.265 356.824 219.148 365.959 213.61C369.283 211.595 372.966 210.204 376.941 209.444C382.811 201.747 387.657 198.563 391.658 199.743C395.385 200.843 397.457 205.61 398.61 210.875C404.065 212.905 405.558 219.063 405.61 223.284C407.013 223.078 408.347 223.284 409.595 223.897C413.038 225.601 414.523 229.926 414.745 230.623C415.31 231.904 415.86 233.309 416.374 234.837C420.891 223.188 427.282 214.528 435.379 209.082C449.486 199.592 464.642 202.699 469.289 204.699C472.658 206.149 474.856 208.248 475.817 210.942C477.257 214.986 475.307 218.812 475.222 218.974C474.893 219.605 474.11 219.853 473.478 219.524C460.971 213.034 451.034 211.942 443.938 216.277C431.67 223.775 431.674 245.257 431.674 245.471C431.674 245.958 431.404 246.408 430.968 246.629C430.533 246.851 430.012 246.81 429.616 246.522C429.602 246.511 427.725 245.216 426.429 245.954C425.597 246.426 423.747 248.515 424.526 257.706C425.32 267.041 427.596 269.406 428.878 269.982C430.307 270.624 431.704 269.606 431.763 269.561C432.095 269.314 432.527 269.237 432.923 269.362C433.318 269.484 433.632 269.783 433.768 270.174L437.481 281.004C438.209 280.443 438.918 280.14 439.69 280.055C442.043 279.797 444.045 281.749 447.672 285.295C449.058 286.649 450.624 288.18 452.563 289.951C455.105 292.272 458.112 292.785 461.506 291.471C466.035 289.715 470.87 284.8 474.775 277.978C478.938 270.698 481.657 261.997 482.429 253.47C484.387 231.782 477.206 224.93 477.135 224.863C476.777 224.535 476.629 224.026 476.762 223.557C476.895 223.089 477.279 222.731 477.76 222.638C478.081 222.576 485.713 221.188 490.862 226.509C495.465 231.269 496.436 239.671 493.747 251.485C486.706 282.409 505.324 299.427 505.512 299.593C505.848 299.895 506.007 300.349 505.922 300.792C505.841 301.235 505.531 301.604 505.106 301.762C503.355 302.419 492.026 306.555 482.721 307.249C483.319 309.548 483.858 311.898 484.339 314.164C487.327 328.303 496.24 334.683 504.101 340.309C510.909 345.184 516.79 349.39 516.701 357.367C516.69 358.371 516.701 359.249 516.731 360.006C517.676 353.143 518.555 336.952 517.185 304.352C515.996 276.022 513.122 248.094 510.584 223.45C507.355 192.105 504.807 167.347 507.193 155.606L507.695 153.13C511.578 134.05 513.524 124.475 515.264 113.79C515.689 111.192 516.254 110.052 517.277 109.731C517.883 109.539 518.537 109.72 519.021 110.218C519.727 110.941 520.325 112.893 520.705 115.609C520.953 114.631 521.189 113.742 521.422 112.937C522.726 108.399 523.646 106.838 525.068 106.75C526.087 106.691 526.815 107.421 527.247 108.923C527.565 110.037 527.739 111.428 527.798 113.022C529.224 109.148 530.287 108.222 531.396 108.115C532.112 108.045 533.113 108.332 533.782 110.085C535.145 113.642 534.657 119.719 533.538 125.866C534.735 123.914 535.47 123.774 536.231 123.907C537.949 124.202 537.901 126.634 537.875 127.94C537.69 137.729 530.808 156.41 527.502 165.391C526.804 167.284 526.254 168.779 525.984 169.598C524.274 174.797 527.233 186.973 530.661 201.075C534.713 217.753 539.755 238.512 539.803 257.942C539.81 261.034 539.807 263.879 539.803 266.506C539.773 294.656 539.77 297.596 552.562 312.459C552.846 312.787 552.946 313.241 552.824 313.658C552.724 314.001 550.334 322.145 545.229 327.513C541.687 331.244 536.039 334.638 532.862 336.391C535.924 337.568 541.565 339.04 546.777 336.693C552.2 334.251 555.96 328.281 557.951 318.953C558.07 318.4 558.535 317.986 559.1 317.935C559.669 317.887 560.197 318.208 560.412 318.735L562.598 324.097C562.473 319.385 562.244 312.559 561.852 304.471C552.724 293.851 548.307 283.848 548.705 274.683C549.09 265.861 553.77 259.584 556.862 255.43C558.04 253.85 559.654 251.684 559.477 251.057C559.462 251.009 559.318 250.836 558.834 250.64C550.032 247.083 547.941 216.543 546.279 179.999C546.197 178.202 546.116 176.461 546.038 174.778C544.86 149.507 547.956 129.058 548.38 126.409C547.83 124.405 544.661 112.598 543.911 104.001C543.386 102.868 540.848 97.3369 538.595 91.5218C533.889 79.3713 534.369 76.3272 535.315 75.0321C535.799 74.368 536.515 74.0433 537.28 74.1503C538.085 74.261 539.042 74.7886 540.494 76.9693C537.705 66.2984 538.588 64.8446 539.038 64.103C539.356 63.579 539.847 63.2469 540.416 63.1621C541.968 62.9296 544.125 63.7672 550.15 76.6704C550.563 77.5559 550.97 78.4415 551.361 79.3123C551.258 78.6334 551.162 77.9434 551.066 77.2497C549.322 64.5052 550.49 61.5238 551.705 60.3468C552.351 59.7232 553.201 59.4981 554.099 59.7158C555.864 60.1438 558.387 62.0957 560.397 73.5931C561.102 67.2208 562.174 65.7007 563.249 65.1324C563.965 64.7561 564.789 64.8262 565.509 65.328C566.806 66.2283 568.597 68.7521 569.177 80.1978C569.451 85.6034 569.332 90.7986 569.299 91.8908L571.863 100.68C574.157 96.2816 578.405 89.046 581.995 87.9279C582.915 87.6401 583.809 87.725 584.577 88.1678C588.16 90.2414 585.231 95.9385 582.128 101.968C580.266 105.587 578.338 109.332 577.773 112.207C575.623 123.099 571.431 127.685 569.898 129.047L570.045 140.423C570.053 141.113 569.521 141.688 568.83 141.729L564.697 141.976L569.754 143.769C570.219 143.935 570.548 144.349 570.607 144.839C570.673 145.404 577.075 200.891 577.828 220.993C581.057 222.664 594.647 229.926 604.078 238.597C614.007 247.718 621.254 247.592 621.328 247.592C621.709 247.585 622.078 247.736 622.333 248.017C622.588 248.297 622.71 248.677 622.658 249.054L620.087 268.067C621.236 269.318 623.981 272.808 624.021 277.701C624.055 282.181 621.831 286.568 617.409 290.737C615.292 292.733 614.247 294.453 614.302 295.855C614.376 297.729 616.456 299.408 618.661 301.187C622.418 304.212 627.56 308.356 623.619 315.846C617.261 327.923 619.803 331.605 633.903 352.043C634.76 353.286 635.657 354.585 636.595 355.951C642.602 364.681 644.729 372.234 642.927 378.392C640.714 385.941 633.415 389.018 630.667 390.177C630.523 390.24 630.393 390.291 630.279 390.343C629.728 390.583 629.152 390.561 628.653 390.288C627.497 389.649 627.246 388.004 626.788 385.019C626.068 380.314 624.978 373.204 619.917 369.643C617.66 368.057 614.757 367.308 611.248 367.411C613.87 372.909 616.896 378.193 620.12 382.845C629.514 396.394 621.376 405.969 615.433 412.961C612.648 416.238 610.247 419.064 610.682 421.097C610.926 422.238 612.164 423.348 614.362 424.392C626.256 430.06 632.661 433.728 635.506 435.465C635.96 430.757 637.316 419.267 640.382 410.105C640.71 409.124 641.047 408.124 641.386 407.113C647.537 388.849 655.187 366.12 650.625 348.873C648.198 339.704 644.076 330.978 639.709 321.742C634.841 311.437 629.806 300.781 626.821 288.741C623.43 275.059 623.271 261.573 626.341 247.515C626.467 246.943 626.962 246.526 627.549 246.5C628.151 246.478 642.229 245.991 666.908 254.795L664.004 238.918C662.08 236.947 652.911 226.07 651.22 196.308L646.274 198.404C645.893 198.566 645.461 198.537 645.11 198.326C644.755 198.116 644.523 197.751 644.482 197.341C644.456 197.087 643.898 191.01 646.576 184.335C648.556 179.39 652.668 173.387 661.193 170.018L654.094 169.491C653.61 169.454 653.189 169.151 653 168.708C652.812 168.262 652.889 167.749 653.196 167.376C653.318 167.229 656.251 163.768 662.036 161.274C667.325 158.99 676.128 157.111 688.015 161.126C696.149 163.871 702.215 171.819 705.565 184.11C708.587 195.201 708.646 207.112 707.696 214.558C707.604 215.192 705.757 227.631 699.946 236.601C700.235 236.549 700.534 236.597 700.8 236.741C701.221 236.973 701.476 237.42 701.465 237.903C701.465 238.006 701.328 248.327 708.753 255.743C709.104 256.094 709.222 256.614 709.059 257.083C708.897 257.551 708.479 257.883 707.984 257.939L667.602 262.51L690.464 277.266L710.286 257.507C710.496 257.3 710.77 257.167 711.062 257.138C711.254 257.116 730.422 254.865 739.908 237.955C747.547 224.339 761.399 203.252 770.375 191.139C763.183 175.354 756.53 160.141 755.241 155.193C745.541 118.07 739.317 83.1644 738.641 79.3234C737.492 77.9397 732.605 71.7667 730.259 64.0587C726.934 53.1517 725.967 38.9718 727.644 35.9462C728.02 35.2673 728.515 35.0127 728.866 34.9167C729.276 34.8061 729.908 34.7692 730.602 35.223C731.559 35.8466 732.841 37.4738 734.54 44.108L734.304 36.662C734.304 36.662 734.304 36.6251 734.304 36.6104C734.304 36.5403 734.374 29.6883 734.865 22.77C735.153 18.6817 735.534 15.3609 735.992 12.9035C736.686 9.16203 737.514 7.4389 738.847 6.95922C739.427 6.7489 740.048 6.84115 740.55 7.21013C740.99 7.53114 741.64 8.00712 742.146 11.0918C743.251 2.74179 744.318 2.41709 745.153 2.1625C745.652 2.00753 746.18 2.10715 746.601 2.43554C747.388 3.04436 748.573 3.96311 748.378 22.9914C749.131 18.9695 749.866 15.6634 750.561 13.1322C752.02 7.8337 753.128 6.5681 754.34 6.29875C754.923 6.16961 755.511 6.33196 755.954 6.74521C756.7 7.44258 758.082 8.73032 756.154 26.7992C758.484 20.0653 759.722 19.6816 760.453 19.4528C761.114 19.2462 761.768 19.3754 762.256 19.8071C763.612 21.0099 763.194 23.9987 761.654 32.2306C760.789 36.8465 759.81 42.0786 759.803 45.6171C759.796 47.296 759.74 56.074 759.253 64.3244C758.839 71.4088 758.277 76.8032 758.144 78.0578L778.531 142.275L781.25 146.382L786.281 104.975C784.501 102.757 777.504 92.7394 775.702 70.5121C775.185 64.1546 775.953 60.7969 778.051 60.2582C779.688 59.8339 781.269 61.2803 782.754 64.5531C783.603 66.4349 784.416 69.5934 785.203 72.6448C785.675 74.4897 786.13 76.2534 786.566 77.6519C786.392 73.4603 786.148 66.5567 786.093 59.5424C785.905 36.4333 787.859 34.6695 788.693 33.9131C789.166 33.4851 789.754 33.3006 790.348 33.3892C791.545 33.57 792.786 34.5183 793.688 38.6951C794.659 32.2786 795.934 30.3746 796.931 29.5518C797.622 28.9836 798.42 28.7696 799.243 28.9393C801.279 29.3562 803.362 31.5332 803.72 41.8646C805.109 36.983 806.69 34.8799 808.726 35.0127C809.21 35.0459 809.919 35.2451 810.532 36.0089C811.537 37.2561 812.722 40.3887 811.888 52.8565C813.631 47.8384 814.725 47.5063 815.397 47.3034C816.121 47.0857 816.856 47.2923 817.421 47.8716C818.526 49.0044 819.56 51.6905 817.761 62.4832C816.878 67.778 815.663 72.8035 815.463 73.6116C815.371 74.9104 814.562 85.8026 812.793 93.4368C811.16 100.473 808.172 105.229 807.303 106.51C807.134 111.664 805.586 157.266 803.048 179.309L809.708 189.368C809.867 189.607 809.941 189.892 809.919 190.179L809.372 197.245L814.839 197.286C815.319 197.286 815.759 197.559 815.981 197.987L826.737 218.893C826.778 218.971 826.811 219.056 826.833 219.141L828.636 225.705L829.515 202.345C828.414 202.171 827.469 201.658 826.737 200.824C823.568 197.216 825.415 188.574 825.637 187.604C825.655 187.523 825.681 187.442 825.718 187.364C825.733 187.331 826.409 185.814 827.413 183.453C827.177 182.8 826.963 182.136 826.774 181.475C825.648 177.516 822.807 163.875 833.53 154.577C834.362 153.857 836.574 151.938 838.259 153.186C839.644 154.211 840.623 156.628 834.65 172.431C833.113 176.498 831.462 180.516 830.199 183.505C831.273 186.135 832.456 187.652 833.013 187.991C834.62 186.711 837.505 176.332 839.404 164.89C839.496 164.336 839.936 163.904 840.494 163.823C841.051 163.742 841.594 164.03 841.842 164.535C841.99 164.834 845.588 171.941 853.899 172.487C858.317 172.775 864.105 171.229 868.778 169.612C858.594 169.472 847.996 166.506 847.416 166.34C846.825 166.17 846.433 165.609 846.481 164.997C846.529 164.384 847.002 163.89 847.612 163.816L857.888 162.55C847.176 159.514 843.785 151.743 843.608 151.315C843.375 150.761 843.556 150.123 844.043 149.769C852.635 143.563 861.272 144.607 867.001 146.577C875.431 149.474 881.943 155.85 882.9 159.145C886.956 173.129 883.358 185.508 881.91 189.556C882.494 189.814 883.14 190.224 883.683 190.88C884.592 191.976 884.95 193.419 884.747 195.172C883.96 202.001 882.073 206.175 879.143 207.573C877.858 208.186 876.646 208.138 875.741 207.931C874.603 211.551 871.061 221.447 864.778 227.199C862.048 229.697 858.671 230.634 855.151 230.634C848.018 230.634 840.279 226.797 836.079 224.358L841.709 241.039L867.947 228.538L888.943 209.274C888.943 209.274 888.98 209.244 888.995 209.23C915.562 187.39 954.644 147.57 975.097 126.283C974.078 125.46 973.143 124.848 972.371 124.571C953.853 123.759 953.07 122.354 952.697 121.675C952.45 121.228 952.442 120.708 952.679 120.25C952.941 119.741 953.502 118.657 963.025 117.262C961.832 116.937 960.558 116.579 959.28 116.206C948.453 113.048 947.762 111.849 947.393 111.203C947.156 110.79 947.093 110.325 947.223 109.897C947.659 108.421 949.35 107.624 955.571 108.281C948.837 105.451 947.821 103.746 947.862 102.333C947.88 101.713 948.176 101.152 948.696 100.757C949.358 100.252 950.85 99.1154 961.692 100.905C956.029 98.1782 954.995 96.5325 955.36 95.005C955.493 94.4552 955.859 94.0013 956.398 93.732C957.606 93.1269 960.251 93.0199 970.727 96.8314C976.375 98.8866 981.717 101.163 981.768 101.185C981.82 101.208 981.872 101.233 981.92 101.263C982.293 101.484 982.888 101.779 983.641 102.152C985.617 103.134 988.595 104.609 991.679 106.805L997.601 96.5805C997.867 95.9828 1000.03 91.0532 1001.69 85.7731C1002.15 84.323 1002.55 82.836 1002.93 81.3933C1004.12 76.9619 1004.77 74.5192 1006.55 74.2462C1007.15 74.154 1007.75 74.3569 1008.18 74.8034C1008.58 75.2166 1008.93 75.8771 1009.07 77.3641C1010.53 70.7889 1011.46 67.3389 1013.81 67.0068C1014.55 66.9035 1015.27 67.1692 1015.85 67.7669C1017.04 68.9956 1017.87 72.4161 1017.76 76.7959C1018.07 75.7074 1018.36 74.6373 1018.63 73.6189C1020.37 67.2467 1021.2 64.4019 1022.81 63.7266C1023.35 63.5015 1023.93 63.5348 1024.44 63.8226C1026.4 64.9147 1026.43 69.6487 1025.79 74.5229C1027.19 71.3202 1028.45 69.6746 1030.19 70.2723C1030.52 70.3867 1030.98 70.656 1031.29 71.3091C1031.88 72.5969 1031.73 75.4232 1030.81 79.7145C1029.92 83.9061 1028.44 88.7618 1026.64 93.3851C1025.12 97.3111 1022.74 101.219 1020.44 105.001C1020.34 105.159 1020.24 105.318 1020.14 105.477C1023.72 101.425 1025.49 99.9087 1026.88 99.9936C1027.42 100.023 1027.91 100.303 1028.21 100.754C1029.79 103.134 1029.04 106.539 1025.99 110.878C1020.71 118.383 1017.42 121.774 1012.95 124.309C1009.75 126.125 1006.77 127.516 1004.31 128.541C1004.42 130.722 1004.3 133.069 1003.9 135.593C1000.23 158.621 989.311 211.056 989.201 211.58L979.726 259.566C979.63 260.06 979.253 260.451 978.761 260.569C971.817 262.252 963.978 264.857 962.283 266.344C962.32 266.362 962.36 266.377 962.405 266.396C967.299 268.403 981.971 261.625 987.213 258.843C987.634 258.618 988.151 258.647 988.547 258.916C988.942 259.186 989.16 259.651 989.104 260.127L983.881 306.88C983.859 307.087 983.785 307.286 983.671 307.456C983.597 307.566 976.117 318.831 972.548 335.498C970.458 345.254 970.095 354.928 971.47 364.256C972.282 369.78 973.712 375.193 975.744 380.462C977.059 375.979 978.935 371.197 981.395 366.031C986.589 355.124 991.269 345.822 995.395 337.612C1012.57 303.467 1021.19 286.324 1026.49 236.752C1033 175.948 1053.71 118.771 1054.35 117C1054.56 116.306 1056.88 108.742 1060.81 101.938C1062.78 98.5472 1064.38 96.4034 1065.8 94.5142C1068.56 90.8392 1070.94 87.666 1075.02 76.6224C1075.94 74.1244 1077.18 73.4455 1078.05 73.3127C1078.96 73.1762 1079.84 73.5784 1080.48 74.4122C1082.08 76.4933 1082.43 81.8177 1079.45 88.5921C1079.33 88.8615 1079.21 89.1308 1079.1 89.3928C1079.74 88.2859 1080.43 87.0941 1081.15 85.8063C1082.92 82.6811 1084.72 79.0872 1086.31 75.9177C1091.04 66.494 1092.45 64.1177 1094.27 64.2321C1094.62 64.2543 1095.48 64.4314 1095.89 65.601C1096.37 66.9773 1096.38 68.7558 1096.05 70.763C1096.4 70.2428 1096.73 69.7557 1097.06 69.3019C1099.67 65.6564 1101.36 64.2395 1102.87 64.4166C1103.44 64.483 1104.45 64.8409 1104.84 66.4903C1105.36 68.7226 1104.65 72.0619 1103.33 75.7701C1105.33 73.6189 1106.31 73.5488 1107.1 73.7887C1108.82 74.3089 1108.63 76.6077 1108.56 77.4748C1107.64 88.9611 1096.9 104.484 1096.44 105.137C1096.4 105.204 1096.34 105.27 1096.28 105.325L1073.02 127.833C1072.28 129.674 1067.52 141.625 1063.96 155.543C1060.55 168.904 1058.41 184.512 1057.21 195.253C1056.72 199.622 1056.51 203.042 1056.47 205.713C1059.17 203.883 1062.07 202.167 1065.12 200.621C1078.33 193.932 1090.44 192.445 1098.35 196.537C1108.58 201.832 1119.08 213.325 1126.42 227.28C1133.69 241.102 1136.56 254.692 1134.12 263.636C1132.63 269.108 1130.48 273.853 1128.4 278.443C1123.65 288.944 1119.89 297.235 1127.42 307.577C1134.25 316.961 1133.36 323.322 1132.59 328.934C1131.81 334.572 1131.14 339.439 1138.9 346.818C1139.41 347.305 1139.44 348.11 1138.96 348.63C1138.48 349.15 1137.67 349.187 1137.15 348.719C1137.07 348.641 1128.5 341.125 1121.93 343.464C1118.11 344.822 1115.56 349.324 1114.34 356.847C1111.69 373.245 1113.14 384.303 1118.43 387.985C1122.49 390.804 1128.11 388.708 1132.1 386.45C1132.48 386.236 1132.95 386.229 1133.33 386.428L1171.52 406.205C1171.61 406.253 1171.69 406.309 1171.77 406.375C1171.95 406.534 1190.28 422.411 1196.01 427.4C1202.13 432.739 1207.4 438.672 1211.63 443.435C1214.6 446.771 1217.92 450.512 1219.31 451.239C1219.69 448.354 1212.99 437.602 1206.09 428.606C1205.68 428.078 1205.75 427.326 1206.24 426.872C1206.73 426.418 1207.48 426.414 1207.98 426.861C1208.04 426.913 1213.76 432.045 1219.96 436.927C1230.64 445.336 1233.5 445.756 1234.08 445.708C1234.15 445.107 1233.71 442.137 1222.97 432.008C1216.79 426.186 1210.31 420.931 1210.24 420.876C1209.71 420.448 1209.6 419.688 1209.99 419.131C1210.38 418.577 1211.13 418.415 1211.72 418.762C1211.79 418.806 1219.46 423.381 1227.57 427.621C1241.35 434.816 1244.81 434.971 1245.55 434.842C1245.42 434.148 1244.02 431.137 1231.26 422.876C1223.64 417.943 1215.81 413.618 1215.73 413.574C1215.12 413.238 1214.88 412.478 1215.2 411.854C1215.52 411.235 1216.27 410.976 1216.9 411.271C1216.97 411.301 1223.19 414.212 1229.79 416.906C1239.38 420.817 1242.86 421.463 1244.08 421.5C1243.37 420.441 1240.75 417.766 1231.05 412.013C1224.47 408.113 1217.91 404.744 1217.84 404.711C1217.78 404.678 1217.72 404.641 1217.66 404.6L1204.05 394.531C1203.55 394.158 1203.38 393.476 1203.66 392.915C1203.94 392.354 1204.59 392.074 1205.19 392.254C1210.31 393.771 1224.47 397.331 1229.36 395.915C1227.53 394.324 1220.02 391.074 1211.82 388.384C1211.79 388.373 1211.76 388.365 1211.73 388.354C1205.99 386.011 1189.86 380.631 1184.23 383.812C1181.44 385.388 1179.38 386.816 1177.86 388.048L1173.42 393.35C1173.04 393.804 1172.39 393.941 1171.86 393.682C1171.32 393.424 1171.04 392.834 1171.16 392.251C1171.23 391.915 1171.85 389.638 1176.04 386.192L1179.55 382.019C1177.1 380.458 1171.43 376.639 1164.55 370.702C1155.55 362.939 1144.44 351.456 1144.33 351.342C1144.02 351.025 1143.9 350.574 1144 350.146C1144.1 349.718 1144.41 349.372 1144.83 349.224C1149.02 347.755 1160.06 342.9 1160.84 338.129C1161.06 336.738 1160.32 335.395 1158.55 334.022C1154.26 330.694 1148.87 330.897 1144.55 331.059C1141.18 331.188 1138.51 331.288 1137.45 329.388C1136.42 327.543 1137.44 324.757 1141.22 319.115C1145.3 313.02 1148.7 309.585 1151.19 307.079C1153.56 304.688 1154.6 303.574 1154.69 302.187C1154.78 300.689 1153.79 298.512 1151.02 294.165C1146.35 286.796 1144.2 280.587 1144.26 274.613C1144.33 268.122 1147.09 261.625 1152.69 254.747C1154.66 252.33 1155.87 249.987 1156.68 247.652C1149.36 254.109 1142.05 260.573 1141.27 261.909C1141.11 262.407 1140.71 262.772 1140.21 262.861C1139.86 262.92 1139.2 262.894 1138.68 262.056C1136.55 258.581 1126.29 224.026 1139.03 207.001C1145.99 197.695 1155.37 190.12 1165.42 185.674C1176.56 180.748 1187.69 179.981 1197.6 183.453C1207.2 186.818 1215.57 193.449 1221.15 202.123C1226.48 210.41 1228.7 219.797 1227.22 227.874C1225.77 235.822 1223.7 240.15 1222.03 243.626C1220.33 247.153 1219.21 249.485 1219.48 253.887C1219.75 258.44 1221.19 261.189 1222.86 264.37C1224.41 267.333 1226.16 270.691 1227.02 275.912C1228.46 284.712 1225.14 291.221 1216.22 297.017C1208.13 302.283 1196.07 304.515 1195.56 304.607C1195.06 304.699 1194.55 304.485 1194.26 304.068C1193.97 303.648 1193.96 303.102 1194.22 302.666C1194.42 302.342 1213.96 269.99 1212.94 248.282C1212.31 234.837 1209.55 225.849 1204.72 221.572C1202.08 219.225 1198.81 218.225 1194.74 218.521C1192.64 218.672 1191.93 218.974 1191.71 219.107C1191.95 219.926 1194.08 221.982 1195.8 223.649C1199.29 227.018 1204.05 231.63 1207.39 237.696C1211.57 245.308 1210.95 259.363 1205.85 272.665C1201.26 284.649 1193.79 293.929 1184.88 298.925C1186.87 300.154 1187.88 301.235 1187.96 302.522C1188.01 303.234 1187.76 304.279 1186.31 305.205C1184.59 306.297 1181.43 307.422 1177.77 308.721C1171.67 310.887 1162.46 314.164 1162.01 317.403C1161.84 318.65 1163.26 319.949 1164.49 320.816C1171.07 325.491 1174.52 328.539 1175.09 332.233C1175.63 335.808 1173.47 339.465 1169.28 344.966C1167.22 347.685 1165.15 351.637 1167.06 355.035C1169.73 359.784 1179.23 361.81 1192.48 360.459C1195.93 360.109 1198 359.253 1198.64 357.921C1199.8 355.486 1196.63 350.667 1193.57 346.007C1189.49 339.804 1185.28 333.391 1186.96 327.856C1187.81 325.063 1190.13 322.846 1193.86 321.266C1204.3 316.846 1205.46 314.396 1206.8 311.562C1208.41 308.16 1210.23 304.308 1224.44 297.386C1245.36 287.202 1259.48 277.701 1269.8 259.267C1292.5 218.694 1323.86 171.812 1326.12 168.439C1326.93 165.181 1336.43 126.959 1338.87 114.738C1339.36 112.292 1340.93 112.21 1341.4 112.244C1343.94 112.421 1346.17 117.125 1346.39 121.051C1346.65 125.63 1346.19 130.741 1345.7 134.545L1354.26 121.97C1356.9 117.184 1369.9 94.0198 1375.53 92.4406C1376.43 92.186 1377.09 92.4073 1377.49 92.6324C1377.89 92.8649 1378.42 93.3298 1378.63 94.2412C1378.93 95.5437 1378.75 98.1524 1374.76 105.801C1383.24 95.6691 1386.45 94.2227 1388.14 94.0936C1389.21 94.0087 1389.89 94.4699 1390.27 94.8684C1391.42 96.0713 1392.01 98.4771 1388.24 105.831C1389.92 104.455 1391.49 103.514 1392.85 103.244C1394.27 102.964 1395.25 103.396 1395.82 103.805C1396.12 104.019 1396.5 104.429 1396.61 105.156C1396.76 106.122 1397.1 108.388 1387.17 122.826C1385.91 124.656 1384.64 126.453 1383.45 128.113C1384.13 127.582 1384.83 127.043 1385.53 126.512C1395.63 118.811 1397.77 118.852 1398.98 119.49C1399.34 119.682 1400.16 120.276 1400 121.719C1399.91 122.505 1399.7 124.339 1389.59 134.489C1385.22 138.873 1380.84 142.957 1379.96 143.777C1378.84 145.839 1369.87 162.015 1360.23 168.269C1355.05 171.634 1350.41 171.634 1347.01 170.745L1350.42 174.767C1350.77 175.18 1350.82 175.767 1350.55 176.236C1350.28 176.726 1322.6 225.657 1316.28 241.117C1312.96 249.253 1310.1 255.109 1307.07 261.311C1304.17 267.233 1301.18 273.355 1297.42 282.162C1289.38 300.984 1276.01 319.219 1275.88 319.403C1275.64 319.732 1275.25 319.927 1274.85 319.927C1274.64 319.934 1269.86 319.934 1264.59 317.617C1259.68 315.455 1253.44 310.795 1251.59 300.884C1251.02 297.829 1250.22 296.811 1249.93 296.648C1249.49 296.877 1248.48 298.681 1248.47 302.013C1248.43 310.083 1253.9 320.599 1269.37 325.919C1281.19 329.989 1297.11 298.67 1302.24 286.261C1302.48 285.69 1303.09 285.365 1303.7 285.49C1304.3 285.616 1304.74 286.154 1304.73 286.774C1304.73 286.918 1304.58 301.511 1310.85 319.396C1314.53 329.871 1319.65 339.417 1326.08 347.763C1334.12 358.186 1344.23 366.765 1356.15 373.27C1356.78 373.613 1357.01 374.396 1356.67 375.023C1356.32 375.65 1355.54 375.879 1354.91 375.536C1342.66 368.85 1332.26 360.02 1324 349.29C1317.39 340.712 1312.14 330.908 1308.38 320.156C1304.28 308.415 1302.87 298.235 1302.39 292.283C1300.35 296.667 1297.06 303.294 1293.13 309.636C1283.9 324.506 1275.63 330.805 1268.53 328.362C1259.82 325.366 1253.21 320.458 1249.42 314.175C1246.59 309.503 1245.35 303.969 1246.09 299.371C1246.62 296.065 1248.05 294.076 1249.91 294.054H1249.94C1251.32 294.054 1253.15 295.165 1254.13 300.412C1255.46 307.478 1259.33 312.474 1265.64 315.252C1269.34 316.879 1272.81 317.241 1274.2 317.322C1276.47 314.164 1287.91 297.877 1295.05 281.147C1298.84 272.281 1301.85 266.126 1304.76 260.178C1307.77 254.016 1310.61 248.198 1313.9 240.143C1319.91 225.424 1344.15 182.339 1347.87 175.749L1341.08 167.727C1340.64 167.21 1340.68 166.439 1341.16 165.967C1341.65 165.495 1342.42 165.476 1342.92 165.93C1343.2 166.174 1349.9 171.9 1358.83 166.104C1368.35 159.923 1377.7 142.544 1377.79 142.367C1377.86 142.242 1377.95 142.124 1378.05 142.028C1386.62 134.106 1395.65 124.903 1397.21 121.996C1396.03 122.424 1393.16 123.907 1386.59 128.958C1381.73 132.689 1377.27 136.508 1377.23 136.545C1376.72 136.976 1375.98 136.958 1375.5 136.504C1375.02 136.05 1374.96 135.309 1375.35 134.785C1375.4 134.722 1380.29 128.272 1385.04 121.376C1392.89 109.96 1393.95 106.654 1394.06 105.775C1393.9 105.731 1393.68 105.713 1393.36 105.775C1390.61 106.318 1386.24 110.952 1382.03 116.28C1377.02 123.959 1371.69 130.977 1371.63 131.051C1371.21 131.6 1370.43 131.722 1369.86 131.331C1369.3 130.94 1369.14 130.169 1369.51 129.582C1370.36 128.217 1374.85 121.151 1380 114.668C1380.16 114.428 1380.31 114.188 1380.47 113.948C1389.89 99.3368 1388.59 96.8868 1388.42 96.6654C1388.14 96.6248 1385.29 96.6986 1373.88 110.967C1367.72 118.668 1362.15 126.645 1362.09 126.726C1361.69 127.309 1360.89 127.457 1360.3 127.054C1359.71 126.656 1359.56 125.855 1359.96 125.269C1360 125.202 1364.59 118.376 1368.85 111.107C1375.98 98.9198 1376.25 95.6839 1376.14 94.9459C1375.44 95.1784 1372.68 96.8683 1365.07 108.831C1360.53 115.967 1356.54 123.195 1356.5 123.269C1356.49 123.306 1356.46 123.339 1356.44 123.372L1344.59 140.762C1344.25 141.271 1343.59 141.463 1343.03 141.227C1342.46 140.991 1342.14 140.389 1342.26 139.788C1342.27 139.685 1344.28 129.361 1343.82 121.199C1343.65 118.273 1342.27 115.767 1341.47 115.022C1341.45 115.085 1341.44 115.159 1341.42 115.243C1338.87 128.01 1328.69 168.875 1328.59 169.288C1328.55 169.435 1328.49 169.572 1328.4 169.697C1328.08 170.184 1295.45 218.727 1272.06 260.533C1261.42 279.557 1246.96 289.306 1225.58 299.714C1212.19 306.238 1210.57 309.655 1209.15 312.673C1207.65 315.846 1206.23 318.846 1194.87 323.654C1191.84 324.938 1190.07 326.558 1189.44 328.617C1188.11 332.996 1192.16 339.162 1195.74 344.601C1199.51 350.338 1202.76 355.294 1200.98 359.043C1199.91 361.275 1197.22 362.585 1192.75 363.039C1178.02 364.544 1168.09 362.153 1164.81 356.312C1162.79 352.707 1163.65 348.128 1167.24 343.413C1170.91 338.594 1172.95 335.284 1172.55 332.631C1172.12 329.867 1168.87 327.089 1163 322.931C1160.37 321.064 1159.18 319.086 1159.47 317.056C1160.13 312.263 1169.05 309.094 1176.92 306.293C1180.29 305.098 1183.46 303.969 1184.94 303.032C1185.22 302.851 1185.34 302.722 1185.39 302.659C1185.18 302.105 1183.86 301.253 1182.12 300.323C1181.31 300.685 1180.48 301.013 1179.65 301.308C1174.98 302.95 1169.95 302.142 1165.09 298.976C1160.95 296.272 1157.78 292.357 1156.2 289.597C1154.59 286.811 1154.35 285.003 1155.44 284.073C1156.88 282.848 1159.03 284.59 1159.83 285.247C1164.84 289.32 1171.73 292.519 1177.26 295.091C1179.16 295.977 1180.8 296.748 1182.18 297.445C1191.2 292.988 1198.83 283.826 1203.46 271.753C1208.22 259.315 1208.92 245.825 1205.14 238.951C1201.99 233.228 1197.39 228.771 1194.02 225.516C1190.6 222.207 1188.53 220.207 1189.26 218.218C1189.87 216.521 1192.18 216.126 1194.57 215.953C1199.31 215.613 1203.31 216.857 1206.46 219.65C1211.9 224.472 1214.87 233.8 1215.54 248.172C1216.44 267.281 1202.63 293.239 1197.95 301.46C1201.98 300.493 1209.46 298.36 1214.83 294.866C1222.87 289.634 1225.75 284.096 1224.48 276.343C1223.69 271.536 1222.11 268.506 1220.58 265.58C1218.85 262.278 1217.22 259.16 1216.91 254.057C1216.6 248.984 1217.97 246.131 1219.71 242.523C1221.31 239.183 1223.3 235.029 1224.69 227.424C1226.05 219.985 1223.97 211.278 1218.99 203.533C1213.71 195.338 1205.82 189.076 1196.76 185.903C1187.48 182.652 1177.01 183.394 1166.48 188.05C1156.82 192.319 1147.81 199.603 1141.11 208.562C1134.78 217.026 1134.79 230.225 1135.91 239.807C1136.94 248.611 1139.09 256.02 1140.24 259.175C1142.27 256.994 1146.75 252.983 1155.84 244.973C1156.5 244.386 1157.18 243.792 1157.86 243.191C1158.07 242.109 1158.25 241.021 1158.42 239.921C1159.74 231.815 1161.1 223.435 1176.22 213.562C1179.79 211.23 1182.43 209.211 1184.38 207.477C1184.31 206.662 1184.21 205.835 1184.06 204.994C1183.02 198.854 1180.24 194.234 1180.21 194.19C1179.96 193.77 1179.96 193.242 1180.23 192.825C1180.49 192.412 1180.97 192.179 1181.46 192.235C1182.4 192.334 1190.69 193.371 1191.95 198.596C1192.64 201.455 1191.02 204.747 1187.03 208.551C1187.28 215.731 1184.74 222.055 1179.56 227.015C1173.95 232.398 1166.84 238.715 1160.22 244.556C1159.4 248.375 1158.04 252.301 1154.71 256.389C1144.77 268.602 1144.35 278.808 1153.23 292.792C1159.16 302.142 1158.18 303.725 1153.04 308.909C1150.63 311.345 1147.33 314.677 1143.39 320.565C1139.29 326.683 1139.61 327.952 1139.72 328.144C1140.01 328.665 1142.8 328.557 1144.46 328.495C1148.96 328.325 1155.11 328.093 1160.15 331.996C1162.7 333.97 1163.79 336.181 1163.41 338.557C1162.44 344.468 1152.06 349.191 1147.58 350.966C1150.83 354.268 1159.2 362.673 1166.25 368.754C1175.11 376.392 1182.09 380.561 1182.16 380.602C1182.49 380.794 1182.72 381.122 1182.78 381.495C1182.79 381.55 1182.8 381.609 1182.8 381.665C1182.86 381.631 1182.91 381.598 1182.97 381.569C1190.74 377.178 1211.32 385.399 1212.68 385.952C1213.18 386.115 1217.67 387.609 1222.1 389.398C1231.5 393.192 1232.3 394.874 1232.31 396.154C1232.31 396.715 1232.07 397.737 1230.44 398.294C1226.31 399.704 1217.33 397.999 1211.05 396.487L1219.13 402.468C1219.97 402.899 1226.16 406.113 1232.38 409.796C1244.68 417.094 1246.6 419.928 1246.9 421.581C1247.04 422.374 1246.78 423.09 1246.18 423.551C1245.43 424.127 1244.09 425.149 1233.11 420.99C1247.06 430.075 1248.47 433.491 1248.13 435.454C1247.99 436.218 1247.53 436.82 1246.81 437.148C1245.18 437.897 1241.37 437.746 1226.31 429.875C1224.83 429.104 1223.37 428.322 1221.96 427.555C1222.88 428.388 1223.81 429.248 1224.74 430.123C1236.41 441.129 1237.17 444.727 1236.52 446.634C1236.25 447.424 1235.66 447.978 1234.85 448.188C1233.18 448.623 1229.79 447.959 1218.25 438.856C1216.91 437.801 1215.59 436.735 1214.35 435.709C1214.71 436.244 1215.07 436.786 1215.43 437.336C1222.03 447.476 1222.21 450.653 1221.76 452.162C1221.39 453.424 1220.56 453.785 1220.1 453.889C1218 454.361 1215.55 451.712 1209.71 445.144C1205.53 440.432 1200.32 434.569 1194.31 429.34C1188.83 424.562 1171.78 409.788 1170.2 408.423L1132.77 389.033C1126.37 392.479 1120.92 392.848 1116.96 390.096C1110.72 385.753 1108.93 374.108 1111.79 356.426C1113.17 347.896 1116.29 342.712 1121.07 341.018C1124.68 339.738 1128.57 340.708 1131.79 342.191C1128.85 337.114 1129.43 332.93 1130.03 328.569C1130.77 323.189 1131.55 317.625 1125.33 309.083C1116.92 297.526 1121.15 288.184 1126.05 277.365C1128.09 272.868 1130.19 268.215 1131.64 262.942C1133.91 254.614 1131.11 241.726 1124.14 228.468C1117.04 214.964 1106.96 203.88 1097.17 198.817C1090.12 195.168 1078.58 196.699 1066.3 202.913C1062.82 204.677 1059.52 206.687 1056.52 208.839C1056.73 213.657 1057.62 214.838 1057.83 215.049C1058.13 215.104 1058.4 215.263 1058.59 215.502C1058.87 215.834 1058.96 216.285 1058.83 216.698C1058.7 217.118 1046.14 258.843 1052.7 274.177C1055.43 280.557 1060.09 285.306 1066.17 287.914C1072.14 290.475 1079.38 290.944 1087.13 289.276C1088.84 286.837 1097.93 273.465 1101.2 259.887C1104.54 246.028 1101.91 231.523 1101.5 229.431C1100.58 228.162 1095.63 221.554 1089.95 217.617C1083.73 213.311 1076.39 212.041 1076.32 212.03C1075.84 211.949 1075.45 211.61 1075.3 211.148C1075.15 210.687 1075.27 210.182 1075.62 209.842C1075.81 209.65 1080.43 205.145 1087.69 205.444C1093.79 205.699 1099.79 209.241 1105.53 215.971C1106.63 217.273 1107.74 218.543 1108.82 219.79C1123.13 236.28 1134.44 249.305 1120.53 288.999C1116.52 300.445 1111.03 313.957 1107.43 314.042C1106.63 314.105 1095.01 315.097 1082.26 320.743C1074.59 324.141 1068.01 328.539 1062.72 333.812C1056.12 340.38 1051.5 348.346 1048.98 357.493C1048.85 357.991 1048.43 358.36 1047.91 358.43C1047.39 358.5 1046.89 358.257 1046.63 357.814C1046.32 357.305 1039.19 345.195 1042.02 334.801C1043.22 330.41 1046.01 326.986 1050.33 324.621C1053.54 322.86 1055.39 321.185 1055.84 319.639C1056.22 318.322 1055.54 317.108 1054.82 315.82C1054.06 314.47 1053.2 312.939 1053.93 311.326C1054.72 309.548 1057.14 308.36 1062.27 307.231C1070.88 305.338 1075.83 302.998 1078.63 301.113C1072.05 302.925 1060.96 304.607 1055.49 297.611C1051.99 293.121 1049.5 290.376 1047.9 288.748C1048.47 295.054 1049.03 308.334 1044.47 314.02C1042.69 316.23 1038.87 320.591 1034.44 325.643C1026.31 334.915 1012.74 350.394 1012 352.884C1011.99 353.98 1011.16 354.257 1010.99 354.301C1010.58 354.408 1009.82 354.423 1009.26 353.338C1007.56 350.025 1002.34 328.797 1019.85 314.226C1020.4 312.481 1020.57 302.456 1020.41 293.486C1020.41 293.279 1020.45 293.076 1020.54 292.892C1031.29 271.037 1035.13 246.327 1037.67 229.974L1037.95 228.188C1038.94 221.808 1045.06 214.119 1053.89 207.547C1053.84 204.182 1054.1 199.979 1054.66 194.958C1055.86 184.135 1058.02 168.399 1061.47 154.894C1065.37 139.644 1070.7 126.719 1070.75 126.593C1070.82 126.431 1070.92 126.283 1071.05 126.158L1094.41 103.551C1095.33 102.2 1105.18 87.5885 1106 77.2571C1106.02 77.0283 1106.03 76.8364 1106.03 76.6741C1104.29 78.1537 1100.78 83.2345 1097.05 89.2784C1094.32 94.3039 1091.78 98.3368 1091.16 99.3257C1090.78 99.9161 1090 100.101 1089.4 99.7427C1088.8 99.3847 1088.59 98.6136 1088.93 98.0048C1088.96 97.9531 1091.46 93.4774 1094.52 88.463C1098.78 80.6517 1103.2 71.1505 1102.35 67.147C1101.48 67.7522 1098.87 70.3313 1092.69 81.2789C1092.57 81.4856 1092.45 81.6959 1092.34 81.9025C1089.42 88.3965 1085.86 94.315 1085.14 95.4809C1084.78 96.0713 1084.02 96.2706 1083.41 95.9385C1082.81 95.6027 1082.57 94.8537 1082.88 94.2338C1082.92 94.1637 1086.13 87.7103 1089.92 80.9358C1092.2 75.8845 1093.98 70.7594 1093.71 67.6378C1092.44 69.4827 1090.37 73.6042 1088.64 77.0541C1087.03 80.2495 1085.22 83.8692 1083.42 87.0498C1076.84 98.7316 1073.55 102.916 1073.42 103.089C1073.03 103.58 1072.34 103.72 1071.79 103.429C1071.24 103.134 1070.98 102.488 1071.17 101.894C1071.21 101.757 1072.28 98.466 1077.1 87.5294C1080.05 80.8325 1079.14 76.5634 1078.39 75.8845C1078.21 76.0247 1077.83 76.4712 1077.46 77.4932C1073.25 88.891 1070.76 92.2044 1067.89 96.0381C1066.44 97.9605 1064.95 99.9493 1063.07 103.207C1059.19 109.919 1056.86 117.675 1056.84 117.753C1056.83 117.778 1056.82 117.804 1056.81 117.83C1056.6 118.402 1035.62 175.87 1029.08 237.003C1023.72 287.044 1014.49 305.411 997.722 338.749C993.6 346.944 988.931 356.235 983.748 367.116C980.642 373.643 978.595 379.314 977.395 384.358C979.397 388.815 981.835 393.162 984.709 397.372C998.084 416.972 1002.81 433.812 1004.41 444.487C1006.17 456.139 1004.73 463.072 1004.67 463.364C1004.56 463.921 1004.08 464.334 1003.51 464.382C1002.95 464.43 1002.41 464.094 1002.21 463.563C1002.12 463.349 993.777 442.048 985.455 427.614C984.893 426.636 984.332 425.676 983.774 424.724C979.282 417.031 975.038 409.766 973.8 400.756C973.11 395.73 973.387 390.421 974.683 384.613C971.861 378.137 969.933 371.425 968.924 364.548C967.513 354.903 967.894 344.907 970.062 334.837C973.483 318.953 980.165 308.123 981.369 306.264L986.293 262.208C980.815 264.931 967.218 271.133 961.448 268.764C959.727 268.056 959.431 267.034 959.49 266.3C959.597 264.92 960.861 263.267 969.32 260.54C972.6 259.481 975.899 258.614 977.38 258.238L986.7 211.041C986.811 210.503 997.723 158.13 1001.38 135.161C1001.69 133.22 1001.82 131.342 1001.79 129.53C1000.15 130.143 998.93 130.53 998.302 130.718C996.167 133.858 991.033 139.659 986.057 145.275C985.854 145.503 985.651 145.732 985.451 145.961L969.926 194.629L948.619 282.638C948.482 283.199 947.995 283.601 947.418 283.623C946.846 283.649 946.321 283.291 946.137 282.745C946.118 282.693 944.659 278.365 943.204 273.388C941.39 274.915 939.521 275.971 938.549 276.472C938.335 278.262 937.762 283.055 937.434 285.708C937.024 289.04 913.515 321.023 896.885 330.078C892.161 332.649 888.245 333.225 885.246 331.779C882.121 330.27 880.573 328.332 880.647 326.023C880.865 319.204 896.73 312.274 899.844 310.979L912.858 293.014C913.05 292.748 913.334 292.567 913.656 292.505C924.39 290.394 931.099 281.365 933.592 265.669C935.454 253.95 934.139 242.678 934.068 242.087C932.118 230.011 926.463 221.996 918.41 219.355C904.672 233.627 894.27 244.143 892.811 245.615C892.224 246.973 889.021 254.363 884.747 264.414C886.099 272.358 888.467 278.055 890.591 281.852C894.148 288.213 897.805 290.767 897.842 290.793C898.197 291.036 898.411 291.442 898.407 291.87C898.285 306.529 874.566 328.451 871.36 331.343C870.51 335.476 863.632 369.975 863.57 404.143C866.107 413.19 867.914 422.396 868.8 427.285C870.019 434.015 870.98 440.616 871.508 445.867C872.354 454.294 871.696 455.143 871.342 455.597C870.98 456.066 870.403 456.276 869.842 456.154C868.882 455.944 867.884 455.726 864.593 441.683C862.735 433.764 860.984 421.71 860.973 404.408C859.255 398.35 857.327 392.837 855.229 388.664C852.909 384.045 850.656 381.528 848.144 380.746C844.612 379.646 840.209 382.052 834.635 385.1C825.529 390.081 813.059 396.9 793.965 394.9C784.73 393.933 777.106 391.937 771.151 388.934C765.337 390.306 759.389 391.911 753.368 393.811C753.18 409.703 752.707 421.81 752.696 422.038C752.689 422.223 752.641 422.407 752.556 422.573C752.386 422.913 748.215 430.909 736.797 436.277C730.148 439.402 722.398 440.967 713.773 440.967C703.075 440.952 690.97 438.476 677.794 433.609C677.354 433.447 676.918 433.288 676.49 433.137C659.073 440.48 647.415 439.041 643.281 435.152C641.571 433.543 641.191 431.447 642.284 429.68C645.084 425.171 656.908 423.592 676.427 430.374C682.855 427.569 690.169 423.496 698.317 417.747C715.439 405.67 733.403 397.553 750.797 391.911C750.938 378.322 750.856 362.278 750.107 348.611C748.618 321.307 759.002 290.977 761.51 284.099C752.511 282.118 745.844 277.959 741.677 271.716C734.788 261.4 737.259 249.238 737.366 248.725C737.473 248.227 737.857 247.84 738.356 247.729C738.855 247.622 739.368 247.814 739.671 248.223C739.8 248.401 752.873 265.894 761.536 266.982C762.936 267.159 764.077 266.868 765.034 266.089C769.526 262.44 778.291 243.216 785.871 224.421C782.192 216.628 776.843 205.215 771.631 193.818C762.732 205.997 749.408 226.332 742.19 239.202C732.763 256.005 714.999 259.189 711.826 259.632L691.58 279.815C691.148 280.243 690.475 280.317 689.965 279.985L663.188 262.702C662.73 262.407 662.505 261.853 662.63 261.322C662.756 260.791 663.199 260.396 663.742 260.333L705.218 255.636C700.538 249.913 699.319 243.379 699.008 240.036C698.1 240.501 697.15 240.907 696.179 241.253C687.893 249.4 684.34 250.002 683.959 250.046C683.652 250.083 683.342 250.002 683.087 249.828L671.972 242.242C671.466 241.899 671.274 241.246 671.507 240.681C671.74 240.117 672.338 239.792 672.94 239.907C673.084 239.932 685.315 242.139 694.779 239.003C702.654 231.025 705.136 214.362 705.162 214.193C707.36 196.969 703.182 168.941 687.217 163.554C678.355 160.561 670.28 160.569 663.218 163.572C660.588 164.69 658.593 166.041 657.252 167.118L668.928 167.989C669.582 168.037 670.096 168.565 670.125 169.221C670.155 169.874 669.689 170.446 669.043 170.553C658.999 172.203 652.258 177.158 649.003 185.283C647.393 189.301 647.068 193.12 647.038 195.275L651.944 193.198C652.335 193.032 652.779 193.068 653.137 193.294C653.495 193.519 653.721 193.906 653.739 194.327C655.22 227.103 665.988 237.209 666.095 237.309C666.306 237.501 666.453 237.759 666.505 238.04L669.885 256.537C669.97 256.994 669.8 257.459 669.446 257.758C669.091 258.057 668.6 258.142 668.164 257.979C646.432 249.95 632.406 249.131 628.679 249.068C622.448 279.085 632.425 300.201 642.077 320.628C646.495 329.978 650.666 338.808 653.152 348.202C657.913 366.197 650.126 389.336 643.865 407.925C643.525 408.936 643.189 409.932 642.86 410.914C639.089 422.182 637.936 437.631 637.925 437.786C637.892 438.251 637.611 438.661 637.19 438.86C636.769 439.059 636.274 439.019 635.894 438.753C635.838 438.712 629.965 434.672 613.272 426.717C610.272 425.285 608.606 423.621 608.178 421.629C607.476 418.352 610.261 415.076 613.486 411.279C619.186 404.571 626.282 396.225 618.019 384.303C614.546 379.292 611.303 373.573 608.525 367.632C607.975 367.71 607.413 367.802 606.841 367.913C602.689 368.721 599.711 368.071 597.986 365.99C594.573 361.869 597.1 353.054 600.498 344.066C599.043 336.804 598.998 330.808 600.424 326.724C601.496 323.665 603.35 321.713 605.939 320.934C607.801 320.374 608.817 320.934 609.341 321.51C611.284 323.628 609.36 328.76 605.496 338.409C604.754 340.262 603.959 342.25 603.184 344.28C603.705 346.752 604.388 349.368 605.234 352.091C606.545 356.319 608.196 360.64 610.095 364.872C614.657 364.548 618.458 365.433 621.424 367.522C627.386 371.717 628.624 379.79 629.363 384.616C629.529 385.694 629.725 386.974 629.924 387.686C632.525 386.583 638.66 383.827 640.467 377.658C642.044 372.278 640.031 365.463 634.486 357.404C633.548 356.039 632.65 354.74 631.793 353.5C617.627 332.97 614.262 328.093 621.35 314.636C624.306 309.027 620.948 306.323 617.058 303.19C614.502 301.131 611.857 298.999 611.739 295.951C611.654 293.741 612.932 291.42 615.654 288.855C619.533 285.199 621.483 281.45 621.454 277.716C621.417 272.768 617.904 269.499 617.867 269.466C617.553 269.181 617.402 268.761 617.461 268.34L619.932 250.068C617.088 249.699 610.531 248.009 602.345 240.493C592.076 231.051 576.159 223.026 576 222.945C575.575 222.731 575.302 222.303 575.287 221.83C574.714 203.773 568.948 152.935 568.147 145.928L557.852 142.282C557.272 142.076 556.917 141.493 557.002 140.884C557.087 140.275 557.589 139.814 558.203 139.777L567.46 139.22L567.319 128.453C567.312 128.018 567.526 127.612 567.884 127.368C567.925 127.339 572.875 123.737 575.25 111.701C575.885 108.469 577.899 104.562 579.842 100.783C581.796 96.9827 584.751 91.2414 583.296 90.3964C583.233 90.3595 583.107 90.2857 582.782 90.389C579.986 91.2635 575.132 99.6689 572.731 104.761C572.502 105.248 571.996 105.539 571.46 105.499C570.924 105.458 570.47 105.089 570.319 104.573L566.773 92.4147C566.736 92.2819 566.717 92.1454 566.721 92.0089C567.064 81.7623 566.226 69.8923 564.286 67.671C563.097 69.7078 562.188 79.6222 562.262 90.2599C562.266 90.9609 561.712 91.5402 561.01 91.5587C560.319 91.5882 559.717 91.0384 559.68 90.3374C559.676 90.2673 559.292 83.3194 558.228 76.3088C556.289 63.52 553.947 62.3282 553.497 62.2175C553.497 62.2175 553.497 62.2175 553.493 62.2175C553.253 62.4795 551.967 64.4867 553.604 76.6077C554.527 83.4485 555.916 90.0496 555.931 90.116C556.071 90.7728 555.683 91.4259 555.037 91.6214C554.394 91.8133 553.707 91.4812 553.463 90.8576C553.437 90.7949 551.018 84.6735 548.155 78.471C544.118 69.7262 542.034 66.9663 541.148 66.0955C541.081 67.4127 541.432 71.0841 544.328 81.0797C546.363 88.1014 548.654 94.7614 548.676 94.8279C548.905 95.4957 548.554 96.2263 547.889 96.4661C547.22 96.7023 546.489 96.3628 546.242 95.6986C542.947 86.7878 539.057 78.7145 537.291 76.9914C537.162 78.0282 537.395 81.242 541.041 90.6473C543.516 97.0306 546.334 103.052 546.36 103.111C546.426 103.252 546.463 103.399 546.478 103.554C547.221 112.543 550.918 125.852 550.955 125.988C551.007 126.173 551.018 126.364 550.985 126.553C550.948 126.763 547.387 147.983 548.632 174.656C548.709 176.339 548.79 178.084 548.872 179.881C549.481 193.264 550.238 209.92 551.919 223.402C554.272 242.25 557.508 247.316 559.813 248.246C560.988 248.722 561.716 249.434 561.978 250.364C562.495 252.208 561.084 254.105 558.945 256.976C553.456 264.344 543.652 277.498 561.642 300.165C561.239 292.575 560.696 284.096 559.965 275.325C559.392 268.495 560.629 262.403 563.54 257.702C566.215 253.389 570.193 250.316 575.051 248.821C580.27 247.216 586.103 247.585 591.478 249.865C597.236 252.308 602.035 256.703 605.359 262.577C609.408 269.731 611.185 281.217 610.003 292.556C608.736 304.71 604.462 314.319 598.274 318.923C592.242 323.414 581.703 325.296 565.768 308.754C565.369 308.341 564.977 307.928 564.593 307.515C565.221 321.418 565.343 330.889 565.343 331.048C565.35 331.668 564.914 332.207 564.305 332.328C563.695 332.45 563.086 332.126 562.85 331.55L559.51 323.355C557.146 331.358 553.223 336.634 547.826 339.055C539.016 343.01 529.689 337.826 529.294 337.605C528.876 337.369 528.625 336.922 528.64 336.446C528.655 335.97 528.928 335.539 529.36 335.325C529.453 335.28 538.639 330.701 543.364 325.731C547.239 321.661 549.481 315.581 550.142 313.592C537.195 298.46 537.199 294.567 537.228 266.499C537.228 263.872 537.236 261.031 537.228 257.942C537.184 238.818 532.179 218.225 528.16 201.677C524.495 186.593 521.599 174.679 523.539 168.782C523.823 167.919 524.381 166.406 525.086 164.487C528.333 155.672 535.075 137.364 535.3 127.977C533.564 131.268 530.69 138.733 528.418 145.5C528.359 145.677 528.319 145.799 528.296 145.865C528.296 145.872 528.296 145.876 528.289 145.883C528.289 145.883 528.289 145.887 528.289 145.891C528.06 146.566 527.329 146.928 526.653 146.699C525.977 146.47 525.615 145.743 525.84 145.068C525.84 145.068 525.84 145.068 525.84 145.061C525.844 145.05 525.855 145.02 525.866 144.979C526.401 143.378 534.332 119.35 531.444 111.17C530.716 112.369 529.176 115.974 526.678 126.796C525.212 136.397 522.855 145.854 522.685 146.525C522.515 147.201 521.843 147.618 521.163 147.474C520.484 147.33 520.04 146.673 520.159 145.987C520.173 145.895 521.788 136.736 523.834 127.649C523.941 127.18 524.045 126.715 524.148 126.261C525.094 120.103 525.655 113.985 524.961 110.421C523.912 112.985 522.486 118.893 521.078 125.94C520.827 131.025 519.978 136.618 518.267 141.603C518.049 142.238 517.385 142.6 516.731 142.437C516.081 142.275 515.659 141.644 515.767 140.983C515.778 140.906 516.96 133.508 518.485 125.778C518.714 120.808 518.352 116.505 517.854 114.052C517.846 114.1 517.839 114.148 517.828 114.199C516.081 124.933 514.13 134.526 510.24 153.639L509.738 156.115C507.429 167.469 509.96 192.054 513.166 223.181C515.707 247.858 518.589 275.83 519.778 304.238C520.798 328.451 520.524 342.903 520.118 350.766C519.387 364.917 517.942 365.795 517.329 366.171C516.838 366.47 516.254 366.481 515.759 366.201C515.242 365.909 514.034 365.219 514.126 357.338C514.2 350.707 509.084 347.043 502.605 342.409C494.767 336.8 485.014 329.819 481.819 314.699C481.232 311.92 480.648 309.481 480.083 307.349C477.084 307.334 474.45 306.839 472.64 305.596C470.922 304.411 470.01 302.607 470.002 300.379C469.988 296.187 470.608 291.128 473.63 290.807C476.965 290.442 479.836 296.969 482.041 304.707C488.708 304.26 497.282 301.77 502.324 300.028C500.525 298.065 497.4 294.183 494.678 288.442C490.984 280.653 487.39 267.816 491.235 250.913C493.714 240.017 492.975 232.416 489.03 228.321C486.411 225.601 482.846 225.055 480.549 225.026C482.85 228.557 486.529 237.01 485.022 253.706C483.4 271.668 473.279 289.693 462.463 293.881C458.141 295.556 454.122 294.855 450.842 291.859C448.869 290.058 447.214 288.438 445.888 287.14C443.029 284.343 441.145 282.502 439.996 282.62C438.907 282.738 437.392 284.653 435.176 287.951C434.33 290.35 433.82 292.951 434.577 294.696C435.043 295.763 435.985 296.431 437.462 296.74C445.862 298.489 452.279 309.278 454.056 312.559C457.58 311.684 460.45 310.909 462.792 310.275C468.492 308.736 471.096 308.031 473.072 308.57C475.344 309.186 476.138 311.227 477.46 314.606C479.182 319.016 482.063 326.392 490.426 338C501.272 353.058 505.169 370.389 502.01 389.505C499.613 404.01 493.245 419.282 483.083 434.89C477.944 442.782 472.666 446.31 465.965 446.317H465.935C459.888 446.317 453.402 443.454 445.194 439.83C440.292 437.668 434.755 435.222 428.442 433.052C426.986 435.809 424.39 439.104 420.633 442.985C415.432 448.354 409.798 452.933 409.739 452.977C409.503 453.169 409.207 453.269 408.901 453.265C395.207 453.021 376.974 459.213 376.793 459.276C376.782 459.279 376.767 459.283 376.756 459.287C343.237 469.607 318.237 480.529 303.298 487.056C298.493 489.156 294.695 490.816 292.043 491.823C290.104 492.561 288.7 493.004 287.695 493.004L287.684 493ZM330.349 433.13C328.166 438.853 318.51 461.729 296.465 482.813C294.98 484.233 291.138 487.905 289.328 490.048C291.877 489.215 296.779 487.074 302.249 484.684C317.232 478.138 342.31 467.179 375.958 456.818C376.911 456.494 394.48 450.56 408.458 450.667C414.97 445.343 422.86 437.591 425.937 432.218C420.976 430.628 415.554 429.237 409.61 428.292C395.141 425.994 385.95 418.662 380.786 412.917C374.736 406.183 371.725 398.859 371.489 394.904C371.326 392.184 372.508 391.435 373.228 391.232C374.03 391.004 376.472 390.31 381.846 400.269C391.307 417.791 407.335 420.282 417.944 421.928C423.898 422.85 428.202 423.518 429.465 426.507C429.956 427.665 429.949 429.045 429.443 430.658C435.767 432.842 441.308 435.285 446.221 437.454C462.289 444.546 471.144 448.453 480.896 433.466C490.862 418.157 497.101 403.217 499.439 389.066C502.483 370.651 498.738 353.969 488.306 339.49C479.751 327.617 476.795 320.049 475.03 315.525C473.859 312.533 473.349 311.308 472.374 311.042C471.07 310.688 468.362 311.422 463.446 312.747C460.875 313.44 457.676 314.304 453.668 315.285C453.08 315.429 452.467 315.145 452.201 314.603C452.135 314.466 445.397 301.01 436.916 299.246C434.016 298.641 432.745 296.984 432.187 295.7C431.862 294.955 431.689 294.143 431.63 293.298C428.224 298.419 424.36 301.124 420.138 301.334C417.194 301.486 414.601 300.379 412.628 299.098C414.061 301.249 414.42 304.939 414.479 307.515C417.552 306.445 420.806 307.522 423.514 310.61C428.143 315.883 430.577 325.694 429.871 336.214C429.269 345.187 426.159 358.515 414.763 371.064C402.78 384.262 393.191 390.077 386.257 388.347C382.925 387.517 381.026 385.155 380.014 383.303C377.222 387.052 372.922 389.97 368.371 389.114C363.964 388.284 358.227 383.727 355.933 366.725C355.257 361.707 354.785 355.998 354.282 349.955C354.186 348.796 354.09 347.634 353.99 346.46C352.709 344.841 351.427 343.302 350.163 341.889C348.756 344.376 345.801 349.423 342.366 354.36C335.602 364.079 330.419 368.559 326.522 368.042C324.092 367.725 322.396 365.603 321.476 361.74C320.228 356.497 318.824 349.032 317.335 341.129C315.459 331.163 313.52 320.861 311.492 312.64C308.488 300.467 306.708 298.988 306.283 298.81C306.231 298.844 306.113 298.936 305.951 299.154C303.247 302.711 305.91 312.44 308.725 322.742C311.71 333.653 315.09 346.018 313.183 355.002C311.207 364.33 315.307 368.625 317.76 371.193C319.012 372.503 319.999 373.54 319.644 374.868C319.323 376.078 318.063 376.68 316.272 377.211C312.171 378.425 307.103 374.503 301.74 370.348C292.93 363.526 286.816 359.485 282.306 365.238C277.603 371.234 266.758 372.167 258.487 371.89C248.754 371.566 238.111 369.385 231.507 366.691C233.83 369.415 237.203 372.772 241.587 375.658C253.755 383.664 267.608 384.432 282.76 377.938C294.093 373.082 302.903 372.898 308.943 377.388C318.876 384.771 317.675 402.08 317.409 404.87C318.03 406.239 320.859 412.179 325.658 417.548C332.787 425.521 340.692 428.551 349.159 426.555C360.226 423.946 365.098 426.96 369.808 429.875C374.617 432.849 379.589 435.927 392.141 433.536C392.769 433.418 393.394 433.772 393.604 434.377C393.815 434.982 393.553 435.646 392.987 435.945C392.714 436.089 386.135 439.502 374.924 440.801C364.858 441.963 349.037 441.543 330.342 433.119L330.349 433.13ZM976.523 388.616C974.247 403.338 979.641 412.574 985.976 423.422C986.534 424.378 987.099 425.344 987.664 426.326C993.644 436.698 999.625 450.538 1002.61 457.767C1002.74 454.66 1002.64 450.221 1001.8 444.719C1000.22 434.344 995.595 417.957 982.54 398.83C980.272 395.505 978.263 392.099 976.523 388.62V388.616ZM863.791 415.773C864.227 424.665 865.243 433.292 867.071 441.081C867.943 444.804 868.638 447.446 869.177 449.324C868.656 442.284 866.728 428.879 863.791 415.773ZM679.855 431.613C708.121 441.79 725.69 438.561 735.486 434.008C745.131 429.529 749.323 422.928 750.084 421.618C750.158 419.673 750.553 408.733 750.731 394.638C733.801 400.202 716.37 408.146 699.773 419.85C692.551 424.946 685.887 428.787 679.851 431.613H679.855ZM653.746 428.329C653.687 428.329 653.632 428.329 653.573 428.329C648.065 428.359 645.247 429.746 644.449 431.034C644.009 431.742 644.201 432.495 645.021 433.263C647.98 436.045 657.533 437.683 672.737 431.868C663.75 429.001 657.562 428.329 653.746 428.329ZM374.089 393.867C373.952 394.752 374.178 397.224 376.017 401.195C377.432 404.246 380.779 410.179 387.313 415.629C393.708 420.965 401.347 424.367 410.016 425.743C416.233 426.732 421.874 428.189 427.02 429.85C427.304 428.923 427.345 428.13 427.086 427.514C426.384 425.854 422.291 425.219 417.548 424.481C406.437 422.758 389.641 420.149 379.575 401.497C376.734 396.236 374.869 394.346 374.093 393.867H374.089ZM846.223 377.875C847.121 377.875 848.003 378.001 848.875 378.27C852.104 379.277 854.845 382.207 857.5 387.495C858.771 390.022 859.957 392.985 861.054 396.154C861.283 388.295 861.859 379.495 862.894 369.684C865.221 347.589 868.841 330.554 868.878 330.384C868.937 330.115 869.077 329.871 869.284 329.69C869.543 329.458 894.898 306.769 895.762 292.475C893.616 290.763 886.361 284.007 882.893 268.683C878.157 279.867 872.479 293.438 867.615 305.559C857.061 331.86 853.633 372.643 853.6 373.053C853.566 373.484 853.315 373.868 852.935 374.078C846.415 377.669 834.369 379.145 819.117 381.012C806.616 382.543 791.534 384.391 775.259 387.974C780.434 390.085 786.758 391.539 794.197 392.317C812.497 394.232 824.554 387.635 833.357 382.82C838.303 380.115 842.407 377.868 846.223 377.868V377.875ZM739.509 252.245C739.232 256.311 739.472 263.813 743.812 270.299C747.809 276.273 754.421 280.162 763.46 281.863C763.837 281.933 764.166 282.169 764.354 282.509C764.542 282.848 764.568 283.247 764.428 283.605C764.295 283.948 751.008 318.174 752.663 348.468C753.398 361.909 753.494 377.632 753.365 391.085C758.248 389.564 763.08 388.232 767.83 387.063C765.037 385.273 762.71 383.207 760.86 380.868C755.718 374.363 756.25 368.094 756.327 367.396C757.531 346.508 763.726 316.433 772.906 286.929C779.481 265.805 788.911 237.837 790.282 233.778C789.816 232.804 788.775 230.612 787.327 227.553C779.872 245.866 771.391 264.23 766.641 268.093C765.13 269.322 763.294 269.809 761.188 269.543C753.516 268.58 743.649 257.363 739.512 252.249L739.509 252.245ZM356.905 350.272C357.385 356.087 357.847 361.581 358.497 366.389C359.439 373.381 362.04 385.306 368.851 386.587C372.97 387.362 376.985 383.801 379.131 379.93C379.39 379.466 379.907 379.207 380.428 379.277C380.952 379.347 381.385 379.728 381.514 380.244C381.562 380.429 382.755 384.838 386.907 385.86C390.989 386.86 398.802 384.812 412.85 369.341C423.747 357.342 426.72 344.619 427.293 336.055C427.943 326.344 425.697 317.027 421.571 312.326C419.846 310.359 417.116 308.485 413.91 310.703C413.507 310.983 412.983 311.009 412.554 310.773C412.126 310.537 411.863 310.083 411.882 309.592C412.03 305.375 411.243 300.39 409.872 299.976C409.665 299.917 407.719 299.596 402.85 307.507C401.147 310.271 399.684 312.71 398.395 314.865C393.172 323.569 391.011 327.17 387.938 327.532C385.747 327.79 383.815 326.277 381.012 323.407C379.264 321.617 378.308 320.322 378.596 318.997C378.884 317.662 380.162 317.16 381.784 316.525C384.831 315.33 389.74 313.411 393.331 305.286C389.877 306.518 383.897 307.994 378.389 306.135C374.473 304.81 371.478 302.032 369.486 297.873C369.217 297.309 369.39 296.63 369.9 296.268C370.41 295.903 371.108 295.955 371.555 296.394C371.592 296.427 375.526 300.135 381.381 300.017C386.017 299.91 390.631 297.467 395.1 292.759C398.103 289.593 400.771 283.734 402.872 275.897C401.757 259.972 400.985 237.837 404.49 230.007C404.993 228.889 405.728 227.605 407.006 227.605C407.013 227.605 407.017 227.605 407.024 227.605C407.597 227.609 408.398 227.885 408.941 229.169C410.526 232.9 410.393 246.268 408.635 259.595C408.048 264.049 407.061 270.1 405.495 276.085C405.876 281.439 406.286 286.07 406.581 289.143C407.095 288.191 407.678 287.062 408.302 285.771C408.528 267.215 410.744 251.507 414.911 238.936C414.276 236.49 413.433 234.036 412.355 231.601C412.333 231.549 412.314 231.498 412.296 231.442C412.285 231.405 411.099 227.516 408.447 226.21C407.331 225.66 406.112 225.653 404.723 226.184C404.306 226.343 403.833 226.277 403.478 226.007C403.124 225.738 402.931 225.302 402.976 224.856C402.983 224.771 403.637 217.159 399.208 214.078C400.109 220.026 400.043 225.801 400.017 227.015C400.01 227.369 399.858 227.701 399.596 227.941C399.334 228.18 398.99 228.299 398.635 228.276C398.532 228.269 388.174 227.638 377.573 231.767C363.536 237.232 355.708 248.076 354.304 263.994C353.281 275.605 354.903 294.696 368.426 319.698C377.643 336.734 388.47 349.242 392.91 353.478C393.213 353.766 393.357 354.183 393.298 354.596C393.205 355.231 390.889 370.219 374.592 375.532C374.008 375.72 373.376 375.481 373.07 374.953C372.97 374.779 365.349 361.67 356.905 350.298V350.272ZM788.642 224.284C791.15 229.594 792.768 232.985 792.838 233.136C792.982 233.438 793.004 233.789 792.897 234.106C792.794 234.413 782.432 265.008 775.373 287.693C766.249 317.023 760.091 346.888 758.905 367.577C758.905 367.607 758.902 367.64 758.898 367.669C758.891 367.721 758.252 373.444 762.943 379.329C765.074 382.004 767.915 384.295 771.446 386.192C789.063 382.096 805.405 380.096 818.806 378.455C833.302 376.68 844.849 375.267 851.088 372.138C851.598 366.548 855.292 329.336 865.217 304.603C870.618 291.147 877.012 275.912 882.021 264.126C881.326 259.736 880.942 254.747 881.023 249.102C881.297 229.878 896.464 216.886 910.361 215.875C912.869 215.691 915.285 215.89 917.571 216.447C936.06 197.216 960.181 171.579 976.7 152.005C978.514 149.854 980.738 147.334 983.109 144.651L985.433 137.371C983.608 135.05 980.176 130.947 977.036 127.973C956.565 149.274 917.357 189.231 890.665 211.178L869.55 230.549C869.454 230.638 869.347 230.708 869.232 230.763L841.502 243.976C841.17 244.135 840.782 244.143 840.442 243.999C840.102 243.855 839.84 243.571 839.721 243.22L832.47 221.731C832.293 221.203 832.47 220.62 832.917 220.288C833.364 219.952 833.974 219.941 834.432 220.259C834.628 220.391 853.94 233.59 863.027 225.269C870.089 218.797 873.606 206.001 873.643 205.872C873.75 205.477 874.038 205.153 874.422 205.005C874.803 204.857 875.235 204.898 875.582 205.116C875.619 205.138 876.787 205.82 878.05 205.2C879.206 204.632 881.282 202.529 882.169 194.851C882.287 193.832 882.128 193.05 881.696 192.519C881.094 191.777 880.085 191.674 880.078 191.674C879.664 191.637 879.287 191.401 879.077 191.046C878.866 190.692 878.829 190.253 878.996 189.877C879.055 189.737 884.994 175.656 880.407 159.838C879.756 157.595 874.134 151.735 866.152 148.994C861.202 147.293 853.851 146.356 846.459 151.212C848.085 154.016 854.18 162.115 869.916 161.045C870.614 161.001 871.223 161.513 871.29 162.211C871.356 162.908 870.858 163.528 870.16 163.617L855.225 165.454C861.464 166.65 870.555 167.819 877.182 166.229C877.828 166.074 878.482 166.432 878.704 167.055C878.925 167.679 878.637 168.369 878.039 168.653C877.437 168.941 863.156 175.653 853.721 175.036C847.464 174.627 843.486 171.077 841.376 168.461C840.926 170.86 840.235 174.31 839.411 177.708C836.711 188.847 834.775 190.906 832.699 190.567C831.307 190.342 829.955 188.762 828.824 186.652C828.47 187.467 828.222 188.028 828.123 188.257C827.417 191.463 826.955 197.131 828.673 199.083C828.98 199.433 829.53 199.887 830.727 199.773C831.096 199.736 831.466 199.865 831.735 200.12C832.005 200.374 832.153 200.736 832.138 201.105L830.893 234.143C830.867 234.782 830.383 235.305 829.748 235.376C829.116 235.449 828.521 235.051 828.352 234.435L824.358 219.912L814.019 199.821L807.95 199.776C807.592 199.776 807.252 199.622 807.008 199.36C806.764 199.098 806.642 198.743 806.672 198.385L807.292 190.379L802.535 183.195C802.191 185.622 801.829 187.585 801.452 188.951C799.938 194.437 794.74 209.034 788.634 224.273L788.642 224.284ZM601.555 348.7C599.257 355.386 597.805 361.743 599.959 364.341C601.034 365.64 603.176 365.987 606.327 365.378C606.686 365.308 607.04 365.245 607.391 365.19C605.585 361.098 604.011 356.936 602.744 352.858C602.305 351.442 601.906 350.058 601.551 348.704L601.555 348.7ZM1083.31 296.873C1083.64 296.873 1083.95 296.995 1084.2 297.228C1084.57 297.578 1084.7 298.113 1084.53 298.593C1084.28 299.297 1081.57 305.6 1062.8 309.736C1057.42 310.92 1056.43 311.968 1056.25 312.367C1056.06 312.798 1056.53 313.647 1057.04 314.544C1057.9 316.079 1058.97 317.986 1058.29 320.337C1057.64 322.602 1055.43 324.739 1051.54 326.871C1047.86 328.882 1045.49 331.771 1044.49 335.454C1042.7 342.022 1045.54 349.7 1047.4 353.714C1052.68 338.003 1064.32 325.812 1081.26 318.337C1094.2 312.625 1105.69 311.573 1107.13 311.463C1107.63 311.138 1110.99 308.319 1118.06 288.14C1124.25 270.473 1125.73 257.223 1122.73 246.441C1120 236.649 1113.9 229.62 1106.83 221.476C1105.75 220.222 1104.64 218.949 1103.52 217.639C1098.29 211.495 1092.93 208.259 1087.59 208.02C1084.11 207.865 1081.3 209.06 1079.52 210.123C1082.42 210.909 1087.1 212.517 1091.39 215.491C1098.05 220.107 1103.51 227.83 1103.74 228.158C1103.84 228.299 1103.91 228.457 1103.95 228.627C1104.09 229.287 1107.42 244.995 1103.69 260.488C1099.96 275.945 1089.36 290.575 1088.91 291.191C1088.73 291.442 1088.46 291.619 1088.15 291.689C1079.68 293.6 1071.72 293.113 1065.12 290.287C1058.41 287.413 1053.29 282.192 1050.29 275.192C1043.87 260.182 1054.07 223.609 1056.03 216.941C1056 216.916 1055.97 216.89 1055.95 216.864C1054.93 215.838 1054.29 213.776 1054.01 210.698C1046.5 216.591 1041.3 223.24 1040.47 228.586L1040.19 230.369C1037.64 246.807 1033.78 271.613 1022.96 293.752C1022.98 294.951 1023.04 299.408 1022.99 303.91C1022.86 315.068 1022.24 315.577 1021.64 316.068C1012.78 323.355 1010.35 332.424 1009.88 338.749C1009.53 343.438 1010.15 347.438 1010.76 349.855C1013.23 346.143 1019.42 338.815 1032.46 323.938C1036.86 318.909 1040.67 314.566 1042.41 312.4C1047.68 305.832 1044.95 285.892 1044.92 285.693C1044.85 285.191 1045.08 284.697 1045.5 284.428C1045.92 284.155 1046.47 284.155 1046.9 284.428C1047.02 284.509 1050.07 286.52 1057.49 296.021C1064.18 304.585 1082.62 297.065 1082.8 296.988C1082.96 296.921 1083.13 296.888 1083.3 296.888L1083.31 296.873ZM607.343 323.285C607.221 323.285 607.011 323.307 606.671 323.41C604.89 323.949 603.642 325.31 602.848 327.58C601.858 330.41 601.695 334.469 602.323 339.346C602.574 338.712 602.829 338.081 603.08 337.454C604.521 333.852 605.884 330.454 606.708 327.79C607.753 324.414 607.524 323.488 607.435 323.292C607.413 323.292 607.384 323.288 607.347 323.288L607.343 323.285ZM914.62 294.925L901.684 312.784C901.543 312.979 901.348 313.13 901.122 313.223C894.259 316.016 883.317 321.979 883.188 326.1C883.151 327.299 884.208 328.425 886.328 329.447C888.216 330.358 890.798 330.078 893.997 328.613C909.847 321.359 933.913 288.538 934.829 285.346C935.239 282.037 936.019 275.465 936.019 275.465C936.071 275.015 936.355 274.628 936.769 274.443C936.817 274.421 939.927 272.982 942.372 270.624C939.166 259.016 940.012 257.422 941.253 256.728C942.871 255.824 944.548 257.828 945.261 258.688C947.474 261.337 948.275 264.078 947.644 266.827C947.256 268.517 946.354 270.026 945.25 271.325C945.823 273.351 946.462 275.48 947.13 277.602L967.377 193.972C967.384 193.943 967.391 193.913 967.403 193.884L981.148 150.791C980.261 151.809 979.43 152.772 978.673 153.673C962.379 172.981 938.708 198.168 920.312 217.321C922.65 218.244 924.819 219.58 926.769 221.317C931.826 225.819 935.125 232.675 936.58 241.693C936.58 241.707 936.584 241.722 936.588 241.737C936.651 242.22 938.062 253.684 936.111 266.019C933.514 282.45 926.086 292.434 914.616 294.932L914.62 294.925ZM381.193 319.588C381.329 319.853 381.721 320.433 382.859 321.595C384.92 323.709 386.516 325.089 387.635 324.96C389.445 324.75 391.979 320.525 396.175 313.533C397.468 311.374 398.938 308.928 400.649 306.153C404.693 299.578 407.819 296.803 410.46 297.46C409.355 296.486 408.701 295.693 408.631 295.604C408.45 295.383 408.35 295.106 408.347 294.822C408.321 293.671 408.306 292.53 408.295 291.401C407.423 292.951 406.851 293.844 406.781 293.951C406.481 294.409 405.931 294.63 405.399 294.504C404.867 294.379 404.472 293.933 404.413 293.39C404.35 292.822 403.91 288.752 403.415 282.882C401.742 287.546 399.629 291.737 396.981 294.53C392.005 299.773 386.759 302.489 381.396 302.596C379.165 302.64 377.181 302.227 375.515 301.633C376.612 302.537 377.85 303.223 379.22 303.688C386.397 306.116 394.971 301.821 395.056 301.777C395.525 301.537 396.094 301.607 396.493 301.954C396.892 302.301 397.04 302.851 396.866 303.349C392.851 314.968 386.264 317.547 382.729 318.931C382.179 319.145 381.518 319.407 381.2 319.595L381.193 319.588ZM564.39 303.445C565.395 304.589 566.473 305.762 567.618 306.95C579.199 318.968 589.258 322.388 596.716 316.839C602.242 312.728 606.239 303.544 607.417 292.276C608.547 281.443 606.889 270.547 603.095 263.835C598.234 255.238 587.617 247.64 575.801 251.279C566.481 254.146 561.52 263.049 562.528 275.096C563.374 285.239 563.973 294.999 564.386 303.448L564.39 303.445ZM174.96 226.874C179.958 237.021 192.502 243.194 192.646 243.264C193.234 243.548 193.518 244.227 193.308 244.844C188.93 257.691 188.203 266.503 191.08 271.786C193.699 276.594 199.1 277.948 204.323 279.258C209.313 280.509 214.031 281.69 216.192 285.767C220.647 294.169 213.791 309.134 209.059 317.68C228.4 301.559 237.41 291.154 237.291 285.147C237.229 281.885 234.447 279.812 231.23 277.413C225.667 273.266 218.74 268.104 223.783 254.452C234.347 225.856 229.276 220.838 225.574 217.178C222.312 213.949 220.676 211.374 225.471 202.824C227.055 199.994 228.304 196.559 229.157 192.755C227.196 191.508 225.101 189.619 222.922 187.121C221.374 194.198 219.198 200.802 217.533 205.355C212.956 217.879 206.994 229.369 203.363 232.675C196.363 239.047 181.646 231.081 174.96 226.878V226.874ZM473.877 293.357C473.622 293.479 472.555 295.036 472.573 300.349C472.581 301.755 473.061 302.74 474.095 303.452C475.318 304.293 477.158 304.681 479.352 304.747C476.736 295.822 474.572 293.409 473.881 293.357H473.877ZM1157.67 286.852C1158.52 288.837 1160.95 292.589 1164.92 295.681C1168.16 298.209 1173.19 300.807 1178.76 298.855C1178.84 298.825 1178.93 298.796 1179.01 298.766C1178.02 298.294 1177.03 297.836 1176.12 297.412C1170.47 294.781 1163.43 291.505 1158.16 287.228C1157.98 287.081 1157.82 286.955 1157.67 286.848V286.852ZM410.914 294.29C411.923 295.39 415.583 298.988 420.016 298.759C423.422 298.582 426.647 296.194 429.605 291.667L430.359 290.516C431.264 289.128 432.066 287.9 432.79 286.815C433.576 284.66 434.552 282.83 435.069 281.922L431.807 272.403C430.791 272.772 429.369 273 427.858 272.336C424.633 270.919 422.646 266.064 421.952 257.905C421.276 249.928 422.328 245.275 425.169 243.678C426.554 242.899 428.013 243.061 429.144 243.427C429.443 237.582 431.297 220.96 442.579 214.056C450.243 209.366 460.601 210.208 473.379 216.554C473.718 215.403 474.025 213.58 473.371 211.765C472.658 209.783 470.941 208.197 468.266 207.049C463.978 205.204 449.97 202.359 436.823 211.204C428.874 216.554 422.635 225.258 418.283 237.077C418.047 237.719 417.814 238.375 417.589 239.036C419.683 247.655 420.212 259.274 415.801 273.709C414.272 278.705 412.466 283.026 410.873 286.376C410.848 288.955 410.862 291.593 410.914 294.287V294.29ZM934.822 285.369C934.822 285.369 934.822 285.38 934.822 285.383C934.822 285.38 934.822 285.372 934.822 285.369ZM274.84 196.327C267.046 196.327 258.591 199.4 251.679 205.093C239.327 215.274 234.495 231.38 238.425 249.282C241.273 262.256 245.292 271.842 250.375 277.782C254.649 282.775 259.581 284.918 264.649 283.985C271.782 282.671 278.845 275.402 283.543 264.543C288.741 252.526 290.418 237.999 288.26 223.642C286.476 211.746 283.281 202.699 278.73 196.592C277.459 196.415 276.159 196.327 274.84 196.327ZM415.986 244.246C413.208 254.23 411.553 266.023 411.036 279.498C411.838 277.465 412.628 275.251 413.348 272.886C415.664 265.292 417.574 255.013 415.982 244.246H415.986ZM310.915 267.396C312.98 269.901 315.518 272.436 318.665 275.27C316.966 271.609 315.392 266.702 315.182 260.835C315.163 260.293 315.485 259.795 315.991 259.592C316.497 259.389 317.073 259.522 317.439 259.927C317.564 260.068 329.2 272.853 338.96 269.798C336.178 267.521 333.249 263.278 334.775 257.466C334.915 256.931 335.092 256.263 335.299 255.474C338.402 243.711 347.851 207.912 347.995 193.275C348.051 187.748 347.67 180.678 347.267 173.192C346.518 159.211 345.742 144.758 347.629 137.57C347.681 137.371 347.781 137.183 347.921 137.032C348.032 136.91 358.981 124.767 359.897 117.103C358.944 118.088 357.622 119.738 356.646 120.952C353.891 124.383 351.966 126.678 350.37 127.339C346.052 129.117 340.94 122.678 340.375 121.94C340.245 121.771 340.157 121.571 340.123 121.357C339.303 116.247 338.313 110.749 337.556 107.226C336.976 110.259 336.289 114.705 335.746 118.83C335.657 119.498 335.074 119.985 334.394 119.952C333.722 119.915 333.186 119.369 333.171 118.693C333.031 113.059 332.595 106.72 332.019 103.111C331.546 106.263 331.095 111.343 330.848 115.867C330.811 116.52 330.294 117.04 329.644 117.085C328.993 117.129 328.41 116.679 328.288 116.037C327.379 111.225 326.249 106.045 325.34 102.669C325.469 106.281 326.068 111.867 326.81 116.834C326.91 117.494 326.485 118.121 325.835 118.28C325.185 118.439 324.524 118.074 324.306 117.443C322.614 112.495 320.331 106.956 318.876 104.532C319.079 107.779 320.605 115.177 323.345 122.228C325.518 127.803 334.538 136.847 334.63 136.939C334.889 137.198 335.029 137.556 335.007 137.925C334.978 138.485 331.842 194.142 324.18 218.535C323.781 220.76 318.447 249.943 310.912 267.403L310.915 267.396ZM942.698 259.684C942.753 261.296 943.399 264.388 944.375 268.115C944.714 267.521 944.973 266.894 945.124 266.237C945.568 264.289 944.966 262.355 943.274 260.333C943.052 260.068 942.86 259.854 942.698 259.684ZM406.851 231.025C406.851 231.025 406.851 231.033 406.847 231.033C404.176 237.003 404.213 252.574 404.915 266.624C405.414 263.879 405.853 260.979 406.23 257.946C407.811 245.187 407.652 234.531 406.851 231.022V231.025ZM1141.28 261.765V261.776C1141.28 261.776 1141.28 261.769 1141.28 261.765ZM912.193 218.38C911.65 218.38 911.1 218.399 910.538 218.443C903.989 218.919 897.329 222.281 892.264 227.66C886.79 233.479 883.713 241.106 883.598 249.131C883.546 252.85 883.705 256.263 884.023 259.389C887.817 250.496 890.425 244.489 890.487 244.349C890.55 244.202 890.642 244.069 890.757 243.954C890.997 243.714 901.34 233.283 915.451 218.639C914.398 218.469 913.312 218.384 912.193 218.384V218.38ZM677.772 243.095L684 247.345C684.849 247.021 687.036 245.951 690.87 242.611C686.105 243.449 681.288 243.364 677.772 243.091V243.095ZM374.621 212.624C372.009 213.366 369.56 214.425 367.3 215.794C358.785 220.956 352.901 230.52 349.809 244.224C349.602 245.231 349.561 246.449 349.709 246.954C350.78 246.629 355.342 243.552 371.027 218.141C372.261 216.141 373.457 214.303 374.617 212.624H374.621ZM1184.4 210.794C1182.49 212.348 1180.23 213.982 1177.6 215.698C1163.43 224.945 1162.22 232.409 1160.94 240.309L1160.92 240.431C1166.78 235.239 1172.83 229.819 1177.73 225.125C1181.89 221.148 1184.12 216.344 1184.4 210.794ZM773.353 191.426C778.277 202.212 783.393 213.159 787.146 221.126C792.664 207.226 797.352 194.079 798.955 188.268C799.446 186.486 799.912 183.586 800.352 179.914L782.949 153.628L779.27 183.885C779.237 184.172 779.104 184.438 778.901 184.641C777.63 185.91 775.698 188.298 773.349 191.43L773.353 191.426ZM90.5422 209.241C91.2219 210.042 92.5295 211.344 94.0699 212.883C95.9464 214.757 97.7934 215.443 99.7143 214.978C104.066 213.927 108.266 207.27 111.287 200.931C102.27 207.662 95.0784 208.625 91.5543 209.097C91.2145 209.141 90.8562 209.189 90.5422 209.241ZM1057.45 215.015C1057.45 215.015 1057.45 215.015 1057.44 215.015C1057.44 215.015 1057.45 215.015 1057.45 215.015ZM1057.46 215.015C1057.46 215.015 1057.46 215.015 1057.45 215.015C1057.45 215.015 1057.45 215.015 1057.46 215.015ZM1057.46 215.015C1057.46 215.015 1057.46 215.015 1057.46 215.015C1057.46 215.015 1057.46 215.015 1057.46 215.015ZM384.417 208.735C388.03 208.735 391.82 209.182 395.747 210.082C394.716 206.009 393.157 202.854 390.93 202.197C389.33 201.725 386.15 202.311 380.661 208.901C381.891 208.791 383.143 208.735 384.417 208.735ZM1183.66 195.264C1184.62 197.341 1185.89 200.588 1186.56 204.448C1186.6 204.684 1186.64 204.92 1186.67 205.156C1189.39 202.153 1189.65 200.249 1189.4 199.175C1188.9 197.12 1186.01 195.891 1183.66 195.268L1183.66 195.264ZM153.808 155.104C149.102 158.584 145.006 162.812 142.353 167.605C138.216 175.084 137.928 183.099 141.504 191.423C142.649 194.091 143.362 195.319 143.772 195.884C144.278 194.46 144.769 190.947 145.209 187.792C146.384 179.361 148.201 166.34 153.808 155.108V155.104ZM729.657 37.9055C728.992 41.1562 729.528 52.7938 732.727 63.2875C735.183 71.3534 740.768 77.8253 740.824 77.8917C740.979 78.0688 741.082 78.2865 741.123 78.519C741.186 78.8843 747.532 115.472 757.738 154.521C758.946 159.152 765.226 173.538 772.145 188.759C774.021 186.301 775.609 184.364 776.769 183.147L780.759 150.311L776.267 143.522C776.201 143.422 776.149 143.315 776.112 143.201L755.585 78.5559C755.529 78.3825 755.511 78.2017 755.533 78.0209C755.54 77.9618 756.19 72.1467 756.66 64.1509C757.036 57.8045 757.188 50.1814 757.206 45.5839C757.217 41.8093 758.218 36.4554 759.101 31.7288C759.652 28.7917 760.354 25.0355 760.475 22.9508C758.654 26.3085 755.766 36.3152 753.756 45.2297C753.605 45.9086 752.94 46.344 752.256 46.2149C751.573 46.0857 751.111 45.44 751.218 44.7537C751.229 44.6689 752.493 36.3189 753.45 27.6331C754.705 16.2538 754.635 11.6194 754.41 9.74501C753.638 11.4054 752.242 15.6856 750.321 26.6775C748.854 35.0865 747.809 43.2741 747.798 43.3553C747.709 44.0416 747.089 44.536 746.405 44.4807C745.714 44.4216 745.194 43.8276 745.223 43.1376C745.866 28.7659 746.032 13.1765 745.397 6.94446C744.229 12.6267 743.14 26.4413 742.626 39.3113C742.619 39.5511 742.612 39.695 742.612 39.7356C742.612 39.7356 742.612 39.7393 742.612 39.743C742.582 40.4588 741.972 41.0086 741.267 40.9828C740.554 40.9532 740 40.3555 740.026 39.6434C740.026 39.6286 740.033 39.4257 740.052 39.0567C740.524 27.2567 740.362 14.0067 739.342 10.1656C738.818 11.5124 737.972 14.9402 737.392 23.5374C736.96 29.9466 736.886 36.1307 736.882 36.5882L737.181 45.9935L737.359 58.3432C737.37 59.0221 736.849 59.5941 736.173 59.6494C735.497 59.7048 734.891 59.2288 734.788 58.5572C733.336 49.0339 731.12 40.2485 729.657 37.9129V37.9055ZM211.737 153.355C211.293 153.355 210.961 153.47 210.762 153.702C208.549 156.278 213.403 169.863 221.444 181.062C222.231 176.077 222.556 171.088 222.021 166.65C221.297 160.668 219.062 156.617 215.375 154.61C213.857 153.783 212.59 153.355 211.737 153.355ZM836.685 155.444C836.415 155.577 835.946 155.864 835.215 156.499C826.678 163.901 827.871 174.59 828.78 178.841C828.843 179.128 828.906 179.405 828.972 179.682C829.903 177.431 830.934 174.87 831.927 172.265C836.6 160.03 836.807 156.425 836.685 155.444ZM783.441 149.677L800.802 175.904C803.222 152.001 804.703 106.58 804.721 106.015C804.729 105.753 804.817 105.502 804.973 105.292C805.006 105.244 808.511 100.396 810.266 92.828C812.065 85.0684 812.874 73.4123 812.885 73.2979C812.889 73.2204 812.904 73.1466 812.922 73.0729C812.937 73.0212 814.267 67.671 815.208 62.0182C816.509 54.2033 816.162 51.2625 815.833 50.1999C815.234 51.1444 813.986 53.8343 812.132 61.391C810.783 66.8814 809.789 72.1984 809.778 72.25C809.649 72.9437 808.992 73.4049 808.293 73.2869C807.599 73.1725 807.122 72.5194 807.226 71.8257C807.237 71.7445 808.438 63.5938 809.113 55.2069C810.314 40.3629 808.859 37.9424 808.504 37.5808C808.22 37.7468 806.413 39.2043 804.518 50.4028C803.787 54.7346 803.118 60.0737 802.634 65.435C802.631 65.483 802.623 65.5309 802.62 65.5752V65.6269H802.612C802.416 66.8482 801.508 66.8777 801.223 66.8556C801.212 66.8556 799.949 66.7375 800.045 65.3427C800.06 65.125 800.1 64.6712 800.159 64.0255C802.941 33.2084 799.158 31.5258 798.719 31.4336C798.674 31.4336 796.307 32.0461 795.287 48.8125C795.147 51.1112 795.051 53.4137 794.988 55.5611C795.058 61.5792 794.877 66.5973 794.873 66.66C794.848 67.3537 794.275 67.9035 793.581 67.9035C793.577 67.9035 793.569 67.9035 793.566 67.9035C792.864 67.8961 792.299 67.3315 792.288 66.6305C792.288 66.5678 792.217 61.6751 792.402 55.5279C792.387 54.2476 792.361 52.9229 792.317 51.5946C791.959 40.3223 790.733 37.1085 790.175 36.2192C789.621 37.4996 788.527 42.2336 788.675 59.6162C788.767 70.6782 789.321 81.4302 789.329 81.5372C789.351 81.9911 789.137 82.4228 788.76 82.6737C788.398 82.9172 787.759 83.098 787.057 82.8729C786.037 82.5482 785.217 81.5188 784.549 79.7255C783.943 78.1094 783.337 75.7516 782.695 73.2573C781.937 70.3092 781.154 67.2614 780.397 65.5863C779.64 63.9185 779.023 63.1547 778.694 62.8669C778.365 63.52 777.896 65.5826 778.276 70.2723C780.223 94.2522 788.501 103.576 788.583 103.669C788.838 103.945 788.959 104.325 788.915 104.698L783.448 149.673L783.441 149.677ZM978.824 126.11C983.028 130.058 987.228 135.456 987.897 136.327C988.155 136.663 988.233 137.102 988.103 137.508L987.357 139.851C991.321 135.345 994.915 131.158 996.356 128.91C996.529 128.641 996.795 128.446 997.102 128.361C997.135 128.353 998.849 127.874 1001.55 126.829C1000.94 121.844 998.916 117.409 995.488 113.583C994.52 112.502 993.485 111.52 992.429 110.635L990.782 113.476C990.734 113.561 990.674 113.638 990.608 113.712C990.442 113.889 985.987 118.642 978.824 126.114V126.11ZM993.748 108.355C998.413 112.17 1002.87 117.734 1004.04 125.811C1006.28 124.855 1008.89 123.605 1011.66 122.036C1015.76 119.712 1018.84 116.516 1023.87 109.366C1025.84 106.565 1026.69 104.292 1026.34 102.835C1024.62 104.082 1020.8 108.602 1018.86 110.908C1017.88 112.059 1017.04 113.055 1016.39 113.775C1015.51 114.76 1014.67 115.694 1013.61 115.085C1013.38 114.948 1012.65 114.41 1013.09 113.199C1014.13 110.34 1016.12 107.078 1018.22 103.624C1020.46 99.9382 1022.78 96.1267 1024.22 92.4147C1027.63 83.6515 1029.01 76.5413 1029.07 73.6263C1028.14 75.283 1026.9 78.6481 1025.94 81.2642C1025.17 83.3637 1024.37 85.537 1023.51 87.6069C1021.12 93.3925 1017.87 97.7354 1017.73 97.9162C1017.32 98.466 1016.54 98.5951 1015.97 98.2077C1015.4 97.8203 1015.23 97.0565 1015.59 96.4698C1015.63 96.4108 1019.3 90.3226 1021.34 83.2899C1023.44 76.0763 1023.86 69.3351 1023.4 66.8629C1022.72 68.4053 1021.85 71.5933 1021.13 74.2647C1020.4 76.9361 1019.58 79.9617 1018.62 82.8176C1016.24 89.961 1012.45 95.7872 1012.3 96.0344C1011.92 96.61 1011.16 96.7908 1010.56 96.444C1009.97 96.0971 1009.75 95.3481 1010.06 94.7356C1010.1 94.6692 1013.52 87.9833 1014.69 81.3933C1015.73 75.5598 1014.93 70.6929 1014.11 69.645C1013.2 70.6339 1012.17 75.283 1011.48 78.4157C1011.22 79.589 1010.95 80.8066 1010.66 81.9948C1009.03 88.8283 1007.05 95.1636 1007.03 95.2263C1006.83 95.8794 1006.14 96.2595 1005.48 96.0934C1004.81 95.9237 1004.4 95.2669 1004.53 94.5954C1005.72 88.4667 1006.66 81.3933 1006.55 78.1426C1006.17 79.2643 1005.77 80.7845 1005.43 82.0317C1005.04 83.5002 1004.63 85.0167 1004.16 86.5221C1002.34 92.2782 1000.03 97.4513 999.931 97.669C999.913 97.7096 999.895 97.7502 999.869 97.7871L993.748 108.355ZM957.791 120.789C961.363 121.287 967.34 121.741 972.67 121.974C972.781 121.977 972.892 121.999 972.999 122.033C974.137 122.387 975.481 123.258 976.885 124.402C983.564 117.435 987.904 112.816 988.621 112.052L990.372 109.03C987.357 106.853 984.402 105.388 982.489 104.436C981.731 104.06 981.122 103.757 980.675 103.499C971.95 99.7759 961.729 96.1488 958.408 95.9459C959.265 96.6838 961.478 98.1265 967.188 100.484C971.717 102.351 976.157 103.842 976.202 103.86C976.859 104.082 977.225 104.779 977.033 105.443C976.841 106.108 976.161 106.506 975.485 106.34C975.43 106.325 969.678 104.934 963.62 103.835C954.692 102.215 951.666 102.414 950.691 102.635C951.341 103.311 953.62 104.964 961.588 107.805C967.044 109.749 972.415 111.262 972.471 111.277C973.147 111.465 973.549 112.162 973.372 112.841C973.198 113.52 972.515 113.937 971.828 113.779C971.776 113.768 966.719 112.602 961.367 111.694C955.456 110.69 952.457 110.554 950.957 110.631C954.278 112.129 962.678 114.598 970.121 116.424C970.731 116.572 971.145 117.136 971.104 117.76C971.063 118.383 970.579 118.889 969.959 118.959C965.659 119.442 960.85 120.155 957.791 120.789Z" fill="#0FB9C2"/>
	</g>
</svg>